<?xml version="1.0" encoding="UTF-8" standalone="no"?>
<!-- Created with Inkscape (http://www.inkscape.org/) -->

<svg
   xmlns:dc="http://purl.org/dc/elements/1.1/"
   xmlns:cc="http://creativecommons.org/ns#"
   xmlns:rdf="http://www.w3.org/1999/02/22-rdf-syntax-ns#"
   xmlns:svg="http://www.w3.org/2000/svg"
   xmlns="http://www.w3.org/2000/svg"
   xmlns:xlink="http://www.w3.org/1999/xlink"
   xmlns:sodipodi="http://sodipodi.sourceforge.net/DTD/sodipodi-0.dtd"
   xmlns:inkscape="http://www.inkscape.org/namespaces/inkscape"
   width="141.73228"
   height="212.59842"
   id="svg2"
   version="1.1"
   inkscape:version="0.48.5 r10040"
   sodipodi:docname="fond_epoques.svg">
  <defs
     id="defs4">
    <linearGradient
       id="linearGradient6761">
      <stop
         style="stop-color:#ffffff;stop-opacity:1;"
         offset="0"
         id="stop6763" />
      <stop
         id="stop6769"
         offset="0.5"
         style="stop-color:#ffffff;stop-opacity:1;" />
      <stop
         style="stop-color:#ffffff;stop-opacity:1;"
         offset="0.75"
         id="stop6771" />
      <stop
         style="stop-color:#9b9b9b;stop-opacity:1;"
         offset="1"
         id="stop6765" />
    </linearGradient>
    <linearGradient
       id="linearGradient6755">
      <stop
         id="stop6757"
         offset="0"
         style="stop-color:#ffffff;stop-opacity:1;" />
      <stop
         id="stop6759"
         offset="1"
         style="stop-color:#8a8a8a;stop-opacity:1;" />
    </linearGradient>
    <linearGradient
       id="linearGradient6511">
      <stop
         style="stop-color:#e61919;stop-opacity:1;"
         offset="0"
         id="stop6513" />
      <stop
         style="stop-color:#070101;stop-opacity:1;"
         offset="1"
         id="stop6515" />
    </linearGradient>
    <linearGradient
       id="linearGradient6426">
      <stop
         style="stop-color:#ffffff;stop-opacity:1;"
         offset="0"
         id="stop6428" />
      <stop
         style="stop-color:#8a8a8a;stop-opacity:1;"
         offset="1"
         id="stop6430" />
    </linearGradient>
    <linearGradient
       inkscape:collect="always"
       xlink:href="#linearGradient3384-13"
       id="linearGradient5026"
       gradientUnits="userSpaceOnUse"
       x1="938.97638"
       y1="77.952736"
       x2="938.97638"
       y2="148.81888" />
    <linearGradient
       id="linearGradient3384-13">
      <stop
         style="stop-color:#fff6d5;stop-opacity:1;"
         offset="0"
         id="stop3386-98" />
      <stop
         style="stop-color:#f4eed7;stop-opacity:1"
         offset="1"
         id="stop3388-9" />
    </linearGradient>
    <linearGradient
       gradientTransform="matrix(1.0428373,0,0,3.0914683,-909.33035,594.85669)"
       y2="148.81888"
       x2="938.97638"
       y1="77.952736"
       x1="938.97638"
       gradientUnits="userSpaceOnUse"
       id="linearGradient5064"
       xlink:href="#linearGradient3384-13"
       inkscape:collect="always" />
    <linearGradient
       inkscape:collect="always"
       xlink:href="#linearGradient3384-13"
       id="linearGradient5119"
       gradientUnits="userSpaceOnUse"
       gradientTransform="matrix(1.0428373,0,0,3.0914683,-909.33035,594.85669)"
       x1="938.97638"
       y1="77.952736"
       x2="938.97638"
       y2="148.81888" />
    <linearGradient
       inkscape:collect="always"
       xlink:href="#linearGradient3384-13"
       id="linearGradient5133"
       gradientUnits="userSpaceOnUse"
       gradientTransform="matrix(1.0428373,0,0,3.0914683,-909.33035,594.85669)"
       x1="938.97638"
       y1="77.952736"
       x2="938.97638"
       y2="148.81888" />
    <clipPath
       clipPathUnits="userSpaceOnUse"
       id="clipPath3356">
      <rect
         style="color:#000000;fill:#666666;fill-opacity:1;fill-rule:nonzero;stroke:none;stroke-width:1;marker:none;visibility:visible;display:inline;overflow:visible;enable-background:accumulate"
         id="rect3358"
         width="141.73228"
         height="141.73228"
         x="868.11023"
         y="42.519665" />
    </clipPath>
    <clipPath
       clipPathUnits="userSpaceOnUse"
       id="clipPath3356-0">
      <rect
         style="color:#000000;fill:#666666;fill-opacity:1;fill-rule:nonzero;stroke:none;stroke-width:1;marker:none;visibility:visible;display:inline;overflow:visible;enable-background:accumulate"
         id="rect3358-6"
         width="141.73228"
         height="141.73228"
         x="868.11023"
         y="42.519665" />
    </clipPath>
    <clipPath
       clipPathUnits="userSpaceOnUse"
       id="clipPath3356-05">
      <rect
         style="color:#000000;fill:#666666;fill-opacity:1;fill-rule:nonzero;stroke:none;stroke-width:1;marker:none;visibility:visible;display:inline;overflow:visible;enable-background:accumulate"
         id="rect3358-9"
         width="141.73228"
         height="141.73228"
         x="868.11023"
         y="42.519665" />
    </clipPath>
    <linearGradient
       inkscape:collect="always"
       xlink:href="#linearGradient6511"
       id="linearGradient6517"
       x1="11.402994"
       y1="-40.02058"
       x2="3.6708305"
       y2="-39.35268"
       gradientUnits="userSpaceOnUse" />
    <linearGradient
       inkscape:collect="always"
       xlink:href="#linearGradient6511-8"
       id="linearGradient6517-0"
       x1="11.402994"
       y1="-40.02058"
       x2="3.6708305"
       y2="-39.35268"
       gradientUnits="userSpaceOnUse" />
    <linearGradient
       id="linearGradient6511-8">
      <stop
         style="stop-color:#e61919;stop-opacity:1;"
         offset="0"
         id="stop6513-7" />
      <stop
         style="stop-color:#070101;stop-opacity:1;"
         offset="1"
         id="stop6515-3" />
    </linearGradient>
  </defs>
  <sodipodi:namedview
     id="base"
     pagecolor="#ffffff"
     bordercolor="#666666"
     borderopacity="1.0"
     inkscape:pageopacity="0.0"
     inkscape:pageshadow="2"
     inkscape:zoom="16.052055"
     inkscape:cx="32.653828"
     inkscape:cy="51.596067"
     inkscape:document-units="cm"
     inkscape:current-layer="layer1"
     showgrid="true"
     units="cm"
     inkscape:snap-global="false"
     inkscape:window-width="1278"
     inkscape:window-height="800"
     inkscape:window-x="0"
     inkscape:window-y="27"
     inkscape:window-maximized="0"
     inkscape:snap-bbox="false"
     inkscape:snap-center="false">
    <inkscape:grid
       type="xygrid"
       id="grid2985"
       empspacing="5"
       visible="true"
       enabled="true"
       snapvisiblegridlinesonly="true"
       originx="0.5px"
       originy="0.5px" />
  </sodipodi:namedview>
  <metadata
     id="metadata7">
    <rdf:RDF>
      <cc:Work
         rdf:about="">
        <dc:format>image/svg+xml</dc:format>
        <dc:type
           rdf:resource="http://purl.org/dc/dcmitype/StillImage" />
        <dc:title />
      </cc:Work>
    </rdf:RDF>
  </metadata>
  <g
     inkscape:label="Fond"
     inkscape:groupmode="layer"
     id="layer1"
     transform="translate(0,-839.76245)"
     style="display:inline">
    <path
       style="fill:#ffffff;stroke:none;stroke-width:1px;stroke-linecap:butt;stroke-linejoin:miter;stroke-opacity:1;fill-opacity:1"
       d="m 13.207032,163.50813 c 0.996757,0.49838 117.368148,-15.69892 117.368148,-15.69892 l 0,0 c 0,0 -35.883253,52.32975 -74.258402,40.36866 -38.37515,-11.96109 -43.109746,-24.66974 -43.109746,-24.66974 z"
       id="path6342"
       inkscape:connector-curvature="0"
       transform="translate(0,839.76245)" />
    <g
       id="g5114"
       transform="translate(-2.0954972,1.7809784)">
      <rect
         y="835.84509"
         x="-4.0326161"
         height="219.08043"
         width="147.80373"
         id="rect3382-8"
         style="color:#000000;fill:url(#linearGradient5133);fill-opacity:1;fill-rule:nonzero;stroke:none;stroke-width:1;marker:none;visibility:visible;display:inline;overflow:visible;enable-background:accumulate" />
      <path
         sodipodi:nodetypes="csssscccc"
         inkscape:connector-curvature="0"
         id="path8216-3"
         d="m 1.3245257,874.86223 c 7.27576,0 10.6733293,-10.91732 17.7165303,-11.84867 12.36669,-1.63529 14.414894,25.59923 26.458944,28.84731 11.66096,3.14477 23.283042,-22.92924 35,-20 20,5 31.5374,-4.90139 44.17411,-4.94965 6.67612,-0.0255 10.57328,7.95101 18.38268,7.95101 l 0,-35.43307 -141.7322643,0 z"
         style="fill:#e9ddae;fill-opacity:0.61764706;stroke:none;display:inline" />
      <path
         sodipodi:nodetypes="csssscccc"
         inkscape:connector-curvature="0"
         id="path8216"
         d="m 1.3245258,1013.2782 c 7.27576,0 10.6733302,10.9173 17.7165302,11.8487 12.36669,1.6353 23.40157,-8.7557 35.44562,-12.0038 11.66096,-3.1447 23.50079,-8.5083 35.50827,-7.2091 12.563484,1.3594 22.042464,15.267 34.679174,15.3152 6.67612,0.025 10.57328,-7.951 18.38268,-7.951 l 0,35.4331 -141.7322742,0 z"
         style="fill:#e9ddaf;fill-opacity:0.61764706;stroke:none;display:inline" />
    </g>
    <g
       id="g5108"
       transform="translate(-0.30978292,1.4238355)">
      <path
         inkscape:connector-curvature="0"
         d="m 131.94239,836.13732 c 0.9639,-0.65073 0.26294,-0.0516 -1.30634,-0.45251 -0.0808,-0.0206 0.14884,-0.17764 0.0877,-0.2343 -0.13231,-0.12253 -0.66383,-0.26581 -0.51605,-0.16245 0.34052,0.23815 0.69063,0.56469 1.10603,0.57509 5.51811,0.13806 11.03931,-0.0888 16.55896,-0.13312 -3.30236,-0.38396 -0.6526,0.60369 -0.67336,1.0051 -0.0203,0.39192 -0.63486,0.49777 -0.82234,0.84255 -0.71467,1.31427 0.0481,1.44989 0.94793,2.47712 -0.32756,0.50325 -0.55347,1.08984 -0.98269,1.50975 -0.6583,0.64402 -2.03434,0.73218 -2.22904,1.6323 -0.15993,0.7394 0.9824,1.15206 1.50938,1.69481 0.31813,0.32765 2.80012,2.09517 2.23137,3.27196 -0.37257,0.77087 -1.35545,1.04638 -2.03317,1.56957 0.2965,0.51854 0.593,1.03707 0.8895,1.5556 -0.3366,0.52561 -1.25083,1.00109 -1.00979,1.57682 0.35337,0.84405 1.66569,0.83995 2.29836,1.50102 1.16829,1.22072 0.21791,1.65694 0.14621,2.92872 -0.0266,0.47206 0.15114,0.93347 0.22671,1.4002 0.0837,0.15662 1.33657,2.35595 1.2243,2.68317 -0.20421,0.59525 -1.47827,0.66009 -1.38542,1.2825 0.0154,0.1032 2.5992,1.24816 2.42668,2.11436 -0.0972,0.4878 -0.7285,0.67736 -1.09275,1.01603 -0.59188,1.51961 1.94305,0.89907 2.00504,1.79368 0.0433,0.62549 -1.25982,0.40129 -1.66056,0.88349 -0.19416,0.23363 0.12711,0.59416 0.18465,0.89244 0.0565,0.29274 0.15547,0.58234 0.15734,0.88047 0.002,0.30336 -0.0975,0.59884 -0.14618,0.89827 -0.0983,0.30952 -0.43477,0.63547 -0.2949,0.92857 0.4084,0.85582 2.15771,1.017 1.60307,1.91302 -0.31676,0.51174 -1.51361,0.31223 -1.55801,0.91243 -0.18341,2.47961 3.71485,-0.64618 0.17783,1.69779 -0.12287,0.27867 -0.19798,0.58374 -0.3686,0.83603 -0.21781,0.32206 -0.85592,0.48366 -0.78205,0.86538 0.0171,0.0885 2.22452,1.70068 2.1766,1.888 -0.14963,0.58486 -1.04841,0.60254 -1.54082,0.9518 -0.40181,0.28499 -0.7568,0.63081 -1.1352,0.94622 -0.39265,0.3304 -1.33052,0.50125 -1.17794,0.9912 4.38944,2.56109 0.88288,-0.27363 0.86511,2.04798 -0.004,0.46859 1.26481,0.71496 0.93604,1.04888 -3.21573,3.26609 -2.77327,-0.8347 -2.8683,1.8176 3.41696,3.05194 -0.3446,-0.71834 1.21663,1.87349 0.23975,0.398 1.0991,0.5215 0.99648,0.97466 -0.12526,0.55312 -0.97576,0.58294 -1.42701,0.92645 -0.35867,0.27304 -0.83719,0.49414 -0.99421,0.91668 -0.11429,0.30755 0.20392,0.62372 0.30588,0.93558 -0.49306,1.3503 1.40075,1.56618 0.38442,2.77479 -0.3135,0.37282 -1.00644,0.39741 -1.18957,0.84879 -0.17244,0.42501 1.42769,1.55345 1.47282,1.59004 0.39735,0.92229 -2.01646,0.90909 -1.67613,1.60332 0.29289,0.5975 1.35745,0.32577 1.83259,0.79163 0.2182,0.21395 -0.33981,0.72856 -0.0953,0.91179 0.66144,0.49559 2.27256,-0.0423 2.35355,0.78024 0.0786,0.79809 -1.4504,0.68472 -2.17559,1.02708 0.76261,0.27342 1.6089,0.37824 2.28782,0.82028 0.71419,0.46501 0.10019,1.22074 0.14689,1.74028 0.0277,0.3082 0.21821,0.57914 0.32731,0.86871 0.3008,0.25258 0.82678,0.3723 0.90241,0.75773 0.0665,0.33881 -0.39077,0.56933 -0.58615,0.854 1.22539,0.65012 1.52696,0.44752 1.91169,1.62324 0.0874,0.26709 0.3002,0.62063 0.11819,0.83475 -0.36863,0.43366 -1.36161,0.25053 -1.50823,0.80049 -0.1138,0.42686 0.76445,0.45311 1.09627,0.74475 0.22468,0.19749 0.36944,0.47058 0.55416,0.70587 2.64052,1.49781 0.58945,-0.0983 -0.72278,1.50029 -0.21998,0.26798 0.70595,0.39127 0.73412,0.73683 0.0203,0.24962 -1.35954,1.28356 -1.36823,1.42644 -0.02,0.32904 0.44187,0.4893 0.6628,0.73395 0.50202,0.23587 1.45112,0.15567 1.50606,0.70761 0.0513,0.51555 -0.93782,0.45179 -1.3609,0.75083 -2.21137,1.56304 0.29292,-0.11051 0.0614,1.47939 -0.248,1.70324 -5.31713,-0.39056 1.93288,1.46619 -0.99904,0.22888 -2.03935,0.32176 -2.99713,0.68663 -0.27296,0.10398 -0.78535,0.47895 -0.56456,0.67019 0.55478,0.48052 1.48069,0.26717 2.10053,0.66021 0.17241,0.10932 -0.21184,0.42643 -0.10885,0.60269 0.75705,1.29574 1.22274,0.032 0.48166,1.29088 -0.2721,0.5683 -0.33244,0.87756 -0.93967,1.24327 -0.43092,0.25953 -1.05501,0.21844 -1.38588,0.59735 -0.14822,0.16975 0.19965,0.41854 0.3705,0.56549 0.99677,0.85728 1.41217,0.23359 0.16468,1.08267 0.33725,0.17902 0.85953,0.1869 1.01176,0.53706 0.28537,0.65643 -1.82202,0.53388 -1.66709,1.05064 0.27417,0.91454 2.61471,0.16416 2.63678,1.11865 0.01,0.43299 -0.77863,0.37951 -1.16795,0.56927 1.34621,0.7825 1.2309,0.26931 0.45732,1.21789 -0.1855,0.22746 -0.28115,0.54085 -0.52124,0.70968 -0.43748,0.30764 -1.43132,0.14473 -1.45365,0.67908 1.63094,0.81839 1.57148,0.21034 1.13014,1.44297 2.13971,1.66711 0.18305,-0.29568 -0.78211,1.45667 -0.18865,0.34251 0.67027,0.42974 0.91363,0.73581 0.16768,0.21091 0.51588,0.63802 0.27558,0.75991 -2.67832,1.35854 -4.41608,-0.15599 -1.89034,1.45785 -0.26224,0.25973 -0.76076,0.411 -0.78673,0.77917 -0.0256,0.36235 0.46987,0.55616 0.67122,0.8585 0.81471,1.22335 0.36491,0.45733 0.29738,1.75843 -0.0162,0.31163 0.26716,0.67926 0.0846,0.93231 -0.31657,0.43871 -0.91807,0.57261 -1.3771,0.85892 -1.86835,2.15871 -0.16347,-0.41936 0.31828,1.80926 0.0774,0.35806 -0.74747,0.4596 -0.72573,0.82529 0.0241,0.40585 0.93346,0.50288 0.82807,0.89555 -0.13488,0.50257 -1.31308,0.34365 -1.30026,0.86384 0.0133,0.54108 0.896,0.60741 1.344,0.91111 2.8858,2.10416 -0.33105,-0.69076 -1.62586,1.52324 -0.34754,0.59426 1.97792,0.13546 1.89597,0.819 -0.22698,1.8933 -2.71602,-0.39989 -2.17385,1.46737 0.0863,0.29713 0.35659,0.50572 0.53489,0.75857 -0.004,0.25974 0.08,0.53676 -0.0132,0.77922 -0.12376,0.32172 -0.32864,0.63472 -0.60825,0.83632 -0.49497,0.35687 -1.65535,0.18194 -1.65037,0.79213 0.005,0.61528 1.63716,0.18568 1.66335,0.80043 0.0786,1.84456 -6.4306,-0.55091 1.23632,1.50416 -0.3234,0.23984 -0.64681,0.47968 -0.97021,0.71952 0.33963,0.2401 1.31487,0.42808 1.01889,0.7203 -0.60828,0.60056 -1.8616,0.1018 -2.4649,0.70736 -0.29857,0.29969 0.67574,0.51565 1.05002,0.71283 0.50267,0.2648 1.53226,0.0997 1.56866,0.6667 0.0346,0.5387 -0.98952,0.43179 -1.48428,0.64769 0.48988,1.07729 0.31486,0.18254 -0.39636,1.19639 -0.10647,0.15177 -0.0814,0.36178 -0.12587,0.54176 -0.0452,0.1827 -0.28635,0.42423 -0.14301,0.54619 0.38523,0.32777 1.56738,0.0556 1.41846,0.53901 -0.19008,0.61699 -1.2018,0.47214 -1.8027,0.70821 0.59426,0.22098 1.31445,0.23557 1.78278,0.66293 0.19205,0.17525 -0.11649,0.51443 -0.2447,0.74061 -0.15853,0.27969 -0.80245,0.50193 -0.60215,0.7534 0.39898,0.50093 2.09028,0.16471 1.77935,0.72457 -1.01624,1.82982 -4.50112,-0.31843 -1.20479,1.3575 -0.47514,1.20886 1.45703,1.58537 1.56194,2.25961 0.0522,0.33561 -0.58695,0.47263 -0.61691,0.81095 -0.21122,2.3852 1.55868,-0.73966 -0.11494,1.69967 0.26671,0.27863 0.61171,0.49934 0.80014,0.83589 0.36001,0.643 0.11999,1.29823 -0.41577,1.75529 -0.46698,0.39839 -1.3837,0.35751 -1.58505,0.93737 -0.949,2.73305 4.80946,-1.14246 -0.84684,1.9386 0.23934,0.31201 0.36763,0.75755 0.71803,0.93604 0.90365,0.4603 2.0623,0.34231 2.90354,0.9087 0.25531,0.1719 -0.0773,0.62495 -0.22313,0.896 -0.17831,0.33143 -0.51675,0.5521 -0.7247,0.86579 -0.5325,0.80324 -0.40447,0.74948 -0.33998,1.61795 -0.25713,0.26262 -1.02216,0.51916 -0.7714,0.78788 0.50989,0.54639 1.45721,0.36713 2.13766,0.67618 2.36394,1.07368 -0.2343,0.38325 -0.31585,1.53383 -0.0311,0.43916 0.80628,0.41084 1.08745,0.74961 0.18052,0.2175 0.1436,0.54676 0.2154,0.82013 0.26315,0.2696 0.95584,0.47078 0.78947,0.8088 -0.26453,0.53747 -1.23923,0.34603 -1.59505,0.82794 -0.17993,0.24369 0.13902,0.63504 0.37135,0.82941 0.47758,0.39953 1.22036,0.42023 1.65517,0.86594 0.46677,0.47846 -0.2078,1.45709 -0.37281,1.78947 0.20816,0.31153 0.36873,0.66078 0.62448,0.93459 0.31561,0.33789 1.05097,0.41908 1.07139,0.88098 0.0101,0.2273 -2.17449,1.646 -2.12243,1.7912 0.86617,2.4173 2.93338,-0.4193 1.00661,1.7156 0.76985,1.1392 -2.22699,1.1065 -1.6724,1.664 0.74067,0.7447 2.15321,0.2477 3.04827,0.7972 0.26216,0.161 -0.1734,0.6127 -0.37911,0.8414 -1.19152,1.3248 -1.86217,0.3595 0.13751,1.6156 0.12011,0.7801 -0.84234,0.9376 -1.0242,1.5212 -0.0764,0.2452 0.35197,0.4785 0.26964,0.7217 -0.11573,0.342 -0.70348,0.4058 -0.77123,0.7604 -0.4307,2.254 1.93217,-0.7442 -0.25994,1.5754 0.11076,0.261 0.17683,0.5459 0.33228,0.783 1.33973,2.0437 1.10621,-0.4167 -1.82068,1.6731 -0.30241,0.2159 0.71006,1.738 0.71899,1.7584 0.11089,0.2533 0.14714,0.5331 0.22071,0.7997 -1.08627,0.5936 0.95493,1.2476 0.51536,1.5898 -0.66926,0.5211 -1.7981,0.1116 -2.46331,0.6378 -0.26887,0.2127 0.46743,0.5052 0.65972,0.789 0.57701,0.8516 0.44179,0.6892 0.32785,1.621 -0.10111,0.2481 -0.0862,0.5873 -0.30332,0.7443 -0.48273,0.3491 -1.1447,0.3665 -1.65587,0.6724 -0.92628,0.5543 -0.63587,0.9484 0.29582,1.3043 2.41714,0.9235 3.4445,0.1625 1.21818,1.1578 -4.77651,1.0965 -1.21987,-0.05 0.22061,1.0296 0.90976,-0.2587 -2.022,0.5975 -1.55132,0.9913 1.20413,1.0073 3.38434,0.01 -0.36197,1.0599 0.56039,0.2038 0.34162,0.8717 0.64987,1.2104 0.25657,0.2819 1.18454,0.3618 0.93864,0.6531 -0.46676,0.5528 -1.65948,0.076 -2.06208,0.6774 -0.24788,0.3701 0.73732,0.5001 1.10598,0.7502 -0.33084,0.256 -0.66168,0.5121 -0.99253,0.7682 0.13049,2.4195 -0.20121,-1.3166 0.57956,1.4194 0.16807,0.589 -0.37302,0.8169 -0.51569,1.281 -0.0563,0.1833 0.16227,0.4515 0.0156,0.5749 -0.37014,0.3115 -0.89695,0.3629 -1.34543,0.5443 4.86054,1.4216 0.83339,-0.1491 -0.24707,1.224 -0.32656,0.4151 1.16518,0.21 1.43977,0.6611 0.28196,0.4632 -1.4157,0.7636 -1.09635,1.2019 0.27485,0.3771 0.85168,0.3818 1.27752,0.5728 -0.16831,0.18 -0.51215,0.2937 -0.50493,0.54 0.007,0.2444 0.4806,0.2632 0.53545,0.5015 0.19691,0.8554 -1.24457,0.1399 -1.21547,0.9405 0.0586,1.6124 2.04027,-0.5513 0.35197,1.0051 0.27104,1.7731 -0.35481,-1.2011 1.52887,1.2378 0.16203,0.2098 -0.30557,0.4359 -0.4218,0.6741 -0.10073,0.2065 -0.12733,0.4435 -0.22493,0.6514 -0.26662,0.5681 -0.41431,0.6573 -0.83283,1.1062 0.10426,0.1315 0.26364,0.2341 0.31278,0.3946 0.0406,0.1327 -0.10631,0.2783 -0.0661,0.4112 0.0898,0.2964 0.66877,0.5098 0.82323,0.6619 0.1176,0.1157 0.38201,0.3332 0.24744,0.4288 -0.42162,0.2993 -0.98975,0.2996 -1.48462,0.4494 1.31076,-0.3898 0.10465,0.6739 0.36918,0.7115 1.21876,0.173 2.51231,-0.2291 3.69076,0.1267 1.82211,0.5501 -5.91793,0.1253 -4.09588,0.8552 1.14309,0.458 2.46006,0.1164 3.69008,0.1745 -0.75016,0.1294 -1.52502,0.1575 -2.25049,0.3881 -0.12705,0.04 0.22883,0.1383 0.33308,0.2214 0.0773,0.062 0.11211,0.1905 0.20891,0.2107 0.58935,0.1235 1.27526,-0.096 1.7943,0.209 -1.07923,0.331 -1.24444,0.1504 -0.56634,0.4675 0,0 -17.95719,0.7365 -17.95719,0.7365 l 0,0 c -0.27234,-0.4206 -1.04538,-0.2326 -1.45393,-0.4491 -0.26321,-0.1395 -0.12067,-0.5467 0.0281,-0.6707 0.19583,-0.1634 0.45709,-0.2262 0.68564,-0.3393 -3.83365,-0.6701 -0.26175,0.1294 0.40567,-0.5827 0.35345,-0.3772 -1.05017,-0.049 -1.53292,-0.2333 -0.11667,-0.045 -0.13499,-0.2815 -0.0484,-0.3715 0.64056,-0.6661 1.46889,-0.053 -0.13768,-0.7347 0.41343,-0.1815 0.95195,-0.197 1.24029,-0.5444 0.13031,-0.157 -0.25319,-0.3258 -0.41523,-0.4498 -0.25913,-0.1983 -0.58143,-0.3048 -0.83662,-0.5081 -0.5053,-0.4026 -0.65898,-0.9673 -0.79727,-1.5629 -0.76112,-2.1214 0.82694,2.8309 1.22607,-1.1051 0.0483,-0.4759 -1.1991,-0.1787 -1.27934,-0.6502 -0.0699,-0.411 0.78772,-0.3522 1.05425,-0.6727 0.27496,-0.3306 -0.30958,-1.028 0.37741,-1.2336 -0.30128,-0.1782 -0.63536,-0.3099 -0.90383,-0.5344 -0.27638,-0.2312 -0.24822,-0.7179 -0.53042,-0.9419 -0.27688,-0.2198 -1.18145,-0.2001 -0.95144,-0.4686 1.60228,-1.87 2.07989,0.4902 1.63183,-1.0686 0.40958,-0.1977 1.30898,-0.1454 1.22874,-0.593 -0.0924,-0.5157 -1.06162,-0.2603 -1.44558,-0.6167 -0.55904,-0.5188 1.22714,-1.8241 0.92549,-2.088 -0.54069,-0.4732 -1.34882,-0.4955 -2.02323,-0.7433 0.24283,-0.2243 0.47671,-0.4587 0.72849,-0.6728 0.25966,-0.2209 0.61992,-0.3447 0.80458,-0.6312 0.0358,-0.056 -0.0649,-1.0551 0.0403,-1.1437 0.35703,-0.3006 1.02627,-0.1822 1.27589,-0.5766 0.14588,-0.2304 -0.3345,-0.4309 -0.50176,-0.6463 2.40529,-2.0587 -0.24128,0.5656 0.62581,-1.2628 0.14152,-0.2984 0.8489,-0.368 0.72583,-0.6745 -0.17582,-0.438 -0.90952,-0.3315 -1.25765,-0.6501 -0.55604,-0.5088 0.19782,-0.9578 0.44037,-1.2068 -1.96462,-1.7488 0.11599,0.4132 -0.53465,-1.0683 -0.093,-0.2118 -1.03461,-0.5925 -0.38025,-1.043 0.41122,-0.2831 1.21098,-0.072 1.39938,-0.5339 0.13994,-0.3434 -0.62555,-0.3983 -0.93832,-0.5975 0.10847,-0.2134 0.26385,-0.4089 0.3254,-0.6402 0.62229,-2.3385 -1.33944,2.3479 -1.57259,-1.421 -0.0342,-0.5531 1.07384,-0.3608 1.50211,-0.7125 1.07474,-0.8826 -0.35971,-1.2766 -0.89146,-1.6416 4.23195,-2.5406 -0.30144,0.6786 1.12951,-1.5118 0.65919,-1.009 1.84248,-0.6759 2.63904,-1.4837 0.36061,-0.3657 -0.5825,-1.1685 -0.10094,-1.5374 0.21321,-0.2675 0.82746,-0.5167 0.63962,-0.8026 -0.35495,-0.5403 -2.15269,-0.3717 -1.73551,-0.8655 4.94781,-5.8565 3.25437,3.1132 1.0984,-1.6336 -1.5087,-3.3216 4.6404,1.6647 0.0567,-1.6437 1.5427,-1.7172 -0.30926,0.3702 1.11855,-1.3186 0.18872,-0.2232 0.53703,-0.3655 0.58421,-0.654 0.0407,-0.249 -0.32516,-0.4123 -0.36919,-0.6607 -0.247,-1.3933 1.30329,0.016 -1.06889,-1.3626 0.21523,-0.2533 0.46087,-0.4835 0.64567,-0.7598 0.15931,-0.2381 0.17068,-0.5746 0.37879,-0.7715 0.36309,-0.3435 1.67109,-0.4889 1.27347,-0.7918 -0.88708,-0.6757 -2.5676,0.1437 -3.26573,-0.7258 -0.45741,-0.5698 1.36045,-0.5334 2.04068,-0.8 -0.40717,-0.263 -0.81434,-0.5261 -1.22151,-0.7891 0.44076,-0.2989 0.95325,-0.5128 1.32229,-0.8968 1.61858,-1.684 -2.11054,-1.7704 -2.2987,-2.6677 -0.15599,-0.74384 2.06788,-0.71043 1.29352,-1.87775 -0.33914,-0.29263 -0.89856,-0.44602 -1.01741,-0.8779 -0.0871,-0.31666 0.442,-0.50696 0.55109,-0.81673 0.1524,-0.43276 -0.018,-1.181 -0.30229,-1.52588 -0.24288,-0.29466 -0.66678,-0.41249 -0.88801,-0.72373 -0.1413,-0.1988 -0.0915,-0.47915 -0.13725,-0.71872 -0.0348,-0.25268 0.0487,-0.55405 -0.10438,-0.75805 -0.2599,-0.34623 -1.0188,-0.34003 -1.04428,-0.7722 -0.0249,-0.4227 1.04415,-0.4319 0.94895,-0.8445 -0.11398,-0.49403 -1.25552,-0.25494 -1.31869,-0.758 -0.0847,-0.6745 2.01236,-0.63328 1.06615,-1.73854 -0.33283,-0.29364 -0.75158,-0.51208 -0.99849,-0.8809 -0.17626,-0.26328 -0.11855,-0.62378 -0.2116,-0.92663 -1.16687,-3.79806 0.33549,1.7608 -0.51345,-1.8356 -0.0767,-0.32475 -0.36116,-0.63432 -0.28578,-0.95937 0.0946,-0.40788 0.49541,-0.67513 0.74312,-1.0127 -0.2291,-0.32103 -0.74026,-0.57226 -0.68729,-0.96308 0.0942,-0.69487 1.76448,-0.87724 0.80987,-1.90983 -0.40415,-0.43716 -1.8585,-0.38284 -1.54803,-0.89082 1.25163,-2.0479 4.65135,0.22664 1.05726,-1.67403 0.0493,-0.2776 -0.005,-0.59568 0.14784,-0.8328 0.22231,-0.34561 1.0009,-0.42105 0.91748,-0.82343 -0.099,-0.47777 -0.94901,-0.38016 -1.24708,-0.76647 -0.15325,-0.19862 0.27579,-0.59406 0.0781,-0.74856 -1.62263,-1.26824 -3.61855,-0.0921 0.18567,-1.40359 -1.49301,-0.84821 -1.55013,-0.38917 -0.34273,-1.38724 0.27936,-0.23094 1.11879,-0.44844 0.84433,-0.68518 -0.61588,-0.53124 -1.59054,-0.35667 -2.35948,-0.62174 -0.43903,-0.15135 -1.20373,-0.15908 -1.24688,-0.62146 -0.0408,-0.43669 0.75017,-0.4546 1.12525,-0.6819 4.43954,-1.89287 0.34789,0.36372 0.3402,-1.41384 -0.002,-0.50821 1.22973,-0.22527 1.34362,-0.72056 0.38653,-1.68107 -2.01787,0.19359 -0.78439,-1.25481 0.21377,-0.25102 0.52091,-0.40433 0.78136,-0.6065 -3.912,-1.28362 -1.43831,-0.0178 -0.13099,-1.32897 0.20337,-0.20397 -0.28567,-0.50363 -0.46924,-0.72558 -0.70835,-0.85644 -1.34864,-0.99122 -0.96245,-2.23964 0.13472,-0.25706 0.29155,-0.50369 0.40415,-0.77118 0.10693,-0.25402 0.0772,-0.57436 0.25197,-0.7875 0.27675,-0.33761 0.90666,-0.37739 1.04291,-0.79212 0.0471,-0.14334 -1.32647,-1.76265 -0.96757,-2.47799 0.0831,-0.27291 0.21483,-0.53553 0.24915,-0.81873 0.0389,-0.32099 -0.2053,-1.34478 0.10604,-1.64849 0.37952,-0.37021 1.5835,-0.21444 1.41901,-0.71845 -0.65391,-2.00366 -4.01914,0.19625 -0.4081,-1.63266 -0.40501,-1.32981 -0.48935,-0.66736 1.19813,-1.60564 -0.0491,-0.60379 -1.73712,-0.31118 -1.58084,-0.89645 0.19043,-0.71316 1.58231,-0.27241 2.04626,-0.84654 0.49421,-0.61159 -1.90759,-1.39071 -1.49685,-1.82322 -1.56522,-2.24421 -0.048,0.52876 2.55598,-1.70214 0.3821,-0.32736 -1.02693,-0.40733 -1.23752,-0.8643 -0.13655,-0.2963 0.32211,-0.57066 0.43519,-0.87669 0.41421,-1.121 0.20489,-0.80673 -0.75049,-1.69963 4.05434,-1.55475 1.50821,0.0354 0.70841,-1.58409 -0.13049,-0.26423 0.48496,-0.39423 0.56893,-0.67671 0.07,-0.23564 -0.0886,-0.48421 -0.15334,-0.72136 -0.31111,-1.13975 -0.54954,-0.48803 0.93788,-1.36139 -2.72402,-2.98223 2.09498,2.72126 0.72959,-1.33866 -0.20246,-0.60202 -1.22572,-0.36492 -1.78596,-0.66418 -1.12866,-0.60288 -0.3216,-0.63509 0.1261,-1.20583 0.13526,-0.17244 0.18658,-0.39662 0.27987,-0.59493 -0.2335,-0.73071 -0.70083,-1.28384 0.3385,-1.69657 0.67891,-0.2696 1.85912,0.14018 2.12369,-0.5407 0.21585,-0.55548 -1.20222,-0.21506 -1.7068,-0.53215 -0.15644,-0.0983 -0.0143,-0.36927 -0.0214,-0.5539 -0.30522,-0.18399 -0.70272,-0.2662 -0.91566,-0.55198 -0.28016,-0.376 0.42342,-0.97795 0.50173,-1.16631 0.0814,-0.19591 -0.0249,-0.44447 0.074,-0.63217 0.26838,-0.50932 0.89943,-0.7617 1.16179,-1.27794 -0.1489,-0.19906 -0.2978,-0.39812 -0.4467,-0.59718 -0.0143,-0.18337 0.0553,-0.3946 -0.0429,-0.55012 -0.16798,-0.26601 -0.72865,-0.31679 -0.7025,-0.63031 0.0293,-0.35165 0.53499,-0.46058 0.81173,-0.67951 1.22385,-0.96816 1.26405,-0.42647 -0.008,-1.4697 -1.85808,-1.78083 -0.35116,0.18127 -0.22634,-1.54243 0.0217,-0.29966 -0.53833,-0.47025 -0.47748,-0.76447 0.071,-0.34352 0.5758,-0.4207 0.78136,-0.70495 1.02089,-1.41175 -1.48887,0.1589 1.44462,-1.22973 -0.23527,-0.18555 -0.47055,-0.37109 -0.70582,-0.55664 0.0183,-0.2066 0.18594,-0.45907 0.0549,-0.61981 -0.28583,-0.3505 -0.92168,-0.33074 -1.14889,-0.72179 -0.12772,-0.21981 0.49796,-0.49673 0.33,-0.68756 -0.36454,-0.41419 -1.39115,-0.1244 -1.51736,-0.66154 -0.10656,-0.45348 0.79306,-0.48893 1.18959,-0.73339 0.3919,-0.2564 0.83555,-0.44728 1.1757,-0.76919 0.20033,-0.1896 0.65231,-0.60863 0.40155,-0.72353 -1.05486,-0.48337 -2.44168,-0.0319 -3.41811,-0.65875 -0.4071,-0.26135 1.04569,-0.29397 1.254,-0.73059 0.12983,-0.27211 -0.3804,-0.46785 -0.57061,-0.70177 0.13634,-0.25828 0.27267,-0.51656 0.40901,-0.77483 -3.8719,-1.76165 -0.15812,0.41818 0.34621,-1.63869 0.13666,-0.55736 -1.11601,-0.38886 -1.53343,-0.78268 -0.21286,-0.20084 -0.0417,-0.60946 -0.20182,-0.85446 -0.19027,-0.29123 -1.78693,-1.58487 -1.99786,-1.76051 0.0606,-0.32614 0.0822,-0.66203 0.1819,-0.97843 0.11023,-0.34994 0.62028,-0.68572 0.44365,-1.0073 -0.005,-0.009 -2.33823,-1.11566 -2.09027,-1.85965 0.16732,-0.50206 1.51012,-0.54127 1.23734,-0.99476 -0.43817,-0.72841 -1.58839,-0.60608 -2.38259,-0.90912 4.59412,-2.87679 -0.37632,0.85651 0.37078,-1.72028 0.16449,-0.5673 1.20613,-0.38631 1.5428,-0.87163 0.49646,-0.71565 -2.1911,-2.29318 -0.047,-2.899 0.23173,-0.3267 0.71405,-0.58002 0.69518,-0.98011 -0.0683,-1.4479 -1.99544,-0.52905 -0.0416,-1.98007 0.54484,-0.40463 1.92471,-0.24784 1.81729,-0.91794 -0.16483,-1.02822 -2.84112,-0.31566 -2.43503,-1.95713 2.03193,-1.29241 1.42716,-0.29133 1.49765,-1.96517 0.014,-0.33219 -0.0373,-0.69549 0.11558,-0.99072 0.20012,-0.38636 0.62055,-0.61303 0.89143,-0.95353 1.22919,-1.54517 0.63412,-0.9558 -1.51814,-2.01333 0.26953,-0.32288 0.54797,-0.63853 0.80859,-0.96865 0.22631,-0.28668 0.40025,-0.61592 0.65157,-0.88094 0.29131,-0.30718 1.0836,-0.41802 0.96588,-0.82466 -0.15256,-0.52699 -1.1789,-0.3184 -1.43695,-0.80255 -0.49804,-0.93438 3.96382,-1.70895 2.73687,-1.6123 -0.78264,-0.27688 -1.80383,-0.20362 -2.34791,-0.83064 -0.26916,-0.31019 0.61834,-0.54762 0.87106,-0.87134 0.21616,-0.27687 0.6789,-0.59976 0.52327,-0.91465 -0.25557,-0.51711 -0.95205,-0.6526 -1.44548,-0.95133 -0.56123,-0.33979 -1.76289,-0.30861 -1.71654,-0.96305 0.0487,-0.68744 1.2334,-0.61521 1.8501,-0.92282 -0.17295,-1.73578 -0.30437,-0.27118 1.57722,-1.74735 0.26481,-0.20776 0.80821,-0.67309 0.52855,-0.86038 -0.86348,-0.57825 -2.40423,0.0396 -3.01244,-0.80305 -0.53872,-0.74635 2.81524,-0.29776 2.18485,-1.6887 0.25626,-1.2871 0.35058,-0.65331 -0.43583,-1.87224 0.0415,-0.45664 0.81293,-0.65617 0.80608,-1.11465 -0.007,-0.48975 -0.47765,-0.8764 -0.84076,-1.20513 -0.57529,-0.52081 -1.28628,-0.8685 -1.92942,-1.30274 -0.47574,-0.45927 -0.95148,-0.91854 -1.42721,-1.37781 0.39019,-1.50211 0.43582,-1.44163 0.59187,-3.0002 0.0521,-0.52041 0.0116,-1.05033 0.0998,-1.56586 0.0915,-0.53486 0.43603,-1.02567 0.43637,-1.5683 6.9e-4,-1.10192 -0.9018,-2.08036 -0.8246,-3.20126 -0.30573,-2.24069 -0.47026,-1.13809 0.62578,-3.28538 -0.002,-0.11707 -1.80083,-3.28344 -1.75312,-3.43834 1.08521,-3.52313 3.76676,0.12586 0.24248,-3.2739 0.15394,-0.47109 0.2249,-0.97797 0.46181,-1.41328 0.2377,-0.43677 0.92313,-0.6626 0.93843,-1.15962 0.0139,-0.45322 -0.64847,-0.64992 -0.87056,-1.04524 -0.4485,-0.79831 -0.0764,-1.53064 0.28559,-2.24512 6.09306,-0.0855 12.1873,-0.40369 18.27919,-0.25658 0.33384,0.008 0.54336,0.42095 0.70178,0.71492 0.34046,0.63179 -5.34093,-0.22523 -1.78011,0.49923 2.19285,0.44614 6.1175,-0.30497 1.18963,0.45792 0,0 -16.33347,0.75784 -16.33347,0.75784 z"
         id="path5020"
         style="fill:#8800aa;fill-opacity:1;fill-rule:nonzero;stroke:none" />
      <path
         inkscape:connector-curvature="0"
         d="m 10.291434,833.61674 c -0.5158599,0.19974 -1.1628493,0.20175 -1.5475791,0.59923 -0.183852,0.18994 0.214959,0.49403 0.2342034,0.75768 0.199178,2.72872 -0.5663338,-1.07071 0.078252,1.88508 0.080596,0.36958 0.4272256,0.76203 0.26455,1.10353 -0.2665705,0.5596 -0.9217268,0.82902 -1.3825904,1.24353 3.7819131,3.62555 -0.026101,-0.93723 0.1787548,2.90756 0.039865,0.74818 0.9508805,1.15815 1.4263207,1.73723 -0.4340911,0.65483 -1.2050925,1.18487 -1.3022733,1.96448 -0.095655,0.76737 0.569842,1.44028 0.7852802,2.18297 0.2289934,0.78942 0.3636848,1.60319 0.5455272,2.40478 0.2634854,0.85773 1.0287805,1.70813 0.7904565,2.57319 -0.305521,1.10897 -1.8151671,1.56256 -2.2258707,2.63703 -0.3244472,0.8488 0.4299328,1.84717 0.1780972,2.72027 -0.2940477,1.01946 -1.6935641,1.60973 -1.7328533,2.67002 1.966438,3.32358 1.7078958,1.60678 1.1102127,5.08879 -0.1186934,0.79509 -0.5067489,1.59562 -0.3560801,2.38527 0.1643558,0.86139 1.1442974,1.44323 1.2526093,2.31344 0.094429,0.75867 -0.4721421,1.45445 -0.6925175,2.18652 -0.2122488,0.70508 -0.445591,1.40565 -0.6052167,2.12447 -0.4649984,2.09396 -0.333367,2.05659 -0.256171,4.1661 -0.3106216,0.69446 -1.0170317,1.3274 -0.9318649,2.08337 0.091951,0.8162 1.1065696,1.26201 1.3953709,2.03092 0.7395135,1.9689 -0.3124952,1.99399 -0.3848073,3.87706 -0.063633,1.65704 0.6270612,2.24586 1.4805258,3.56263 2.4408766,5.35169 -0.4147757,-1.83847 0.322548,3.2316 0.08251,0.56737 1.0893866,0.94927 0.8747869,1.48092 -0.3145631,0.77931 -1.9858143,0.61705 -2.0595371,1.45421 -0.066592,0.75618 1.3655955,0.76681 1.8097326,1.38244 0.2768363,0.38373 0.1342283,0.93676 0.2013425,1.40514 0.3194377,0.46656 0.8648627,0.84203 0.9583127,1.39969 0.08251,0.49236 -0.333935,0.94111 -0.486392,1.41649 -0.145632,0.45409 -0.3245791,0.90172 -0.4076811,1.37129 -0.078891,0.44579 -0.182052,0.9162 -0.074986,1.35606 0.1181371,0.48535 0.5030661,0.86404 0.7243721,1.31187 0.203042,0.41086 0.364823,0.84086 0.547235,1.26129 -0.329514,0.41864 -0.950113,0.72454 -0.98854,1.25592 -0.03623,0.501 0.756433,0.77359 0.805623,1.27348 0.04489,0.45623 -0.391502,0.82996 -0.556554,1.25766 -0.160572,0.41608 -0.3919568,0.82547 -0.4191444,1.27063 -0.026893,0.44035 0.4217384,0.88589 0.2623164,1.29725 -0.2220242,0.57289 -0.8528852,0.88463 -1.2793276,1.32695 3.0175166,1.98604 2.3191286,0.56398 0.6599265,2.73501 -0.3184165,0.41664 -0.9592711,0.93016 -0.7219012,1.39774 0.3878052,0.76392 1.8471643,0.60919 2.1479533,1.41137 0.204732,0.54601 -0.867168,0.82105 -1.1125195,1.35005 -0.1910169,0.41184 -0.094591,0.90303 -0.141887,1.35455 0.092299,0.46343 0.1845973,0.92686 0.2768959,1.39029 -0.4830422,0.4701 -1.5122169,0.73923 -1.4491265,1.41031 0.06987,0.74319 1.3554216,0.78468 1.7168871,1.4378 0.232995,0.42099 -0.01815,0.96896 -0.12526,1.43805 -0.343552,1.50458 -0.7070688,1.69896 -1.6427912,2.95575 0.4356265,0.74033 1.5069213,1.92978 0.8346866,2.98406 -0.388352,0.60906 -1.6013807,0.61198 -1.7144074,1.32542 -0.1779842,1.12346 2.915704,1.61575 2.2672817,2.5503 -0.530588,0.76473 -1.7190986,0.71415 -2.5786479,1.07122 0.7210105,0.48887 -0.2314076,1.54052 0.2206226,2.06467 0.4247583,0.49252 1.9478046,0.37182 1.6928609,0.97015 -0.3543763,0.83169 -2.655581,0.0915 -2.5264591,0.98623 0.4196302,2.90791 5.5508288,-0.6392 1.1838901,1.9117 0.4157548,0.30367 1.0375361,0.44082 1.2472644,0.91101 0.1369324,0.307 -0.229842,0.64356 -0.435128,0.90974 -0.2744187,0.35582 -1.3364854,0.65161 -0.9802031,0.92543 0.8326757,0.63994 2.1351988,0.21651 3.0752424,0.68469 0.227871,0.11349 -0.0822,0.53311 -0.25529,0.71978 -0.310629,0.33498 -0.753702,0.51647 -1.130553,0.7747 -2.1536232,1.74485 0.030281,-0.42624 1.705924,1.43022 0.329202,0.36473 -0.916806,0.44724 -1.210316,0.84126 -0.479661,0.64391 0.250982,1.09116 0.242107,1.66677 -0.0046,0.2967 -0.215423,0.55298 -0.3231345,0.82947 2.8746275,2.04317 0.4822675,-0.25709 0.6619885,1.72233 0.03163,0.34833 0.72474,0.44514 0.687256,0.79289 -0.02193,0.20341 -1.7590459,1.49822 -1.8134868,1.61274 -0.1144097,0.24069 0.136754,0.51515 0.205131,0.77273 1.5473198,0.54197 2.3204738,0.10553 2.2411758,1.54254 -0.01689,0.30606 -0.07923,0.61723 -0.206443,0.89611 -0.15869,0.34789 -0.60491,0.57275 -0.637375,0.95373 -0.194353,2.28079 1.977135,-0.24252 -0.74459,2.08095 0.08799,0.36951 0.175974,0.73903 0.263961,1.10854 -0.181536,0.34791 -0.6302968,0.66077 -0.5446078,1.04372 0.1031287,0.46089 0.9653668,0.53066 1.0022458,1.0015 0.03157,0.40308 -0.9206745,0.45962 -0.856538,0.85882 0.07288,0.45364 1.319929,0.38424 1.122944,0.79933 -0.281795,0.5938 -1.2262719,0.47361 -1.8394076,0.71041 0.3639454,0.23582 1.1177076,0.27456 1.0918366,0.70745 -0.04992,0.83535 -2.2975496,0.56049 -1.927668,1.46824 0.3699119,0.90782 2.243389,0.54292 1.969581,1.60575 -0.107284,0.41644 -0.6716343,0.53724 -1.0074515,0.80586 1.8616115,2.17242 -0.126354,-0.6816 -0.2597968,1.56779 -0.021915,0.36942 0.6744143,0.3884 0.8500053,0.71415 0.286637,0.53177 -0.4419986,0.98616 -0.596315,1.30949 -0.088184,0.18477 -0.059597,0.40511 -0.089396,0.60767 0.2731686,0.18176 0.810207,0.2173 0.819506,0.54528 0.0091,0.32108 -0.5710338,0.3176 -0.7883346,0.55414 -0.1434771,0.15618 -0.4442312,0.48506 -0.2558713,0.58252 0.7703513,0.3986 1.8119379,0.11361 2.5329849,0.5957 0.25301,0.16916 -0.412606,0.47813 -0.48461,0.77384 -0.06752,0.27729 0.05923,0.5677 0.08884,0.85154 -1.070192,0.2267 -0.275242,1.2559 -0.667964,1.73547 -0.355256,0.43383 -1.7889398,0.51259 -1.4065408,0.9227 0.7177735,0.76977 2.2745168,0.11784 3.0451788,0.83466 0.36133,0.33608 -0.961633,0.46554 -1.162926,0.91609 -0.138903,0.31091 0.213493,0.64672 0.320239,0.97008 -1.207731,1.84307 -0.502732,0.10023 0.141896,2.00897 0.109603,0.32453 0.01396,0.69622 -0.08523,1.02408 -0.107391,0.35499 -0.701836,0.65837 -0.521851,0.98264 1.066446,1.92137 4.161023,0.13436 -0.9998576,1.87194 0.039323,0.29502 -0.051198,0.64018 0.1179696,0.88506 0.260523,0.37712 0.773488,0.51005 1.080764,0.85016 0.216931,0.24011 0.288791,0.58027 0.459782,0.85499 0.19092,0.30674 0.454252,0.56734 0.624001,0.88628 0.329331,0.6188 0.450003,1.3321 0.607331,2.003 -0.789702,1.2517 -0.886869,0.799 -0.346453,2.1494 0.148611,0.3714 0.508024,0.6791 0.525844,1.0787 0.01741,0.3903 -0.368801,0.7047 -0.429102,1.0907 -0.350339,2.2427 0.854234,-0.1977 -0.551708,2.0974 0.155302,0.2179 1.286868,1.5448 1.001188,2.0589 -0.26369,0.4746 -1.080628,0.4441 -1.345283,0.9181 -0.153543,0.275 0.171648,0.6156 0.340619,0.8814 0.831488,1.308 1.278608,0.418 -0.280161,1.6216 -0.755234,1.0829 -0.771715,1.2727 -0.202529,2.4385 0.144689,0.2964 0.351813,0.5645 0.459212,0.8763 0.636331,1.8475 -0.566276,-0.1427 0.763769,1.7554 -6.8330075,2.3065 -1.349249,-0.3473 -1.375455,1.8215 -0.0063,0.5237 -1.127285,0.3812 -1.306048,0.8735 -0.09458,0.2605 1.5625,1.8983 1.562981,1.9263 0.0077,0.4473 -0.587549,0.6747 -0.881324,1.012 0.544885,0.3486 1.51806,0.4094 1.634655,1.0457 0.09827,0.5362 -0.899616,0.6372 -1.249662,1.0551 -1.6204178,1.9349 0.400008,0.095 -0.460996,2.0723 -0.184152,0.4228 -1.1871974,0.6378 -0.9323604,1.0221 0.4721164,0.7121 1.5501024,0.7191 2.3251544,1.0786 -1.047509,0.682 -2.7336907,1.8046 -1.752351,3.3196 0.282032,0.4354 0.965816,0.5749 1.134217,1.0656 0.154478,0.4501 -1.026384,1.6884 -1.191517,1.8854 -0.4161221,0.2809 -1.4350654,0.3766 -1.2483665,0.8426 0.2609241,0.6513 1.3904125,0.3959 1.9260525,0.849 0.209874,0.1776 -0.09465,0.5897 0.05044,0.8232 0.21987,0.3539 1.276438,0.5316 0.959027,0.8014 -1.821425,1.5482 -4.5079144,-0.059 -1.22362,1.4283 -1.8822673,1.1408 -0.08487,0.8523 -0.219046,1.8609 -0.03174,0.2385 -0.378423,0.3468 -0.426401,0.5826 -0.108419,0.5329 0.620071,0.9562 0.880432,1.1819 -0.720684,0.5374 1.037175,0.9965 0.647715,1.2675 -0.680031,0.4732 -2.398385,-0.2113 -2.407614,0.6171 -0.0092,0.8262 1.648571,0.2867 2.393565,0.644 0.205996,0.099 0.350625,0.4192 0.266253,0.6315 -0.131297,0.3304 -0.532206,0.4715 -0.798309,0.7073 1.787065,2.5226 -0.747514,-1.5239 -0.360053,1.2979 0.05364,0.3906 1.035541,0.2337 1.003339,0.6267 -0.03415,0.4168 -1.185658,0.1865 -1.103566,0.5965 0.09742,0.4866 0.958507,0.3233 1.349027,0.6295 0.144571,0.1133 0.09024,0.3561 0.135359,0.5342 0.146382,0.8205 -1.999003,0.048 -2.1207805,0.7923 -0.057612,0.3524 0.9692925,0.231 1.5849265,0.5528 0.06008,0.031 -0.06593,0.1185 -0.0989,0.1777 0.135109,0.046 0.270217,0.092 0.405326,0.1377 -1.106923,0.9446 -2.9714898,-0.5146 -0.63349,0.2368 0.09029,0.029 -0.291553,0.1078 -0.224438,0.1748 0.157962,0.1578 0.789786,0.074 0.629175,0.2293 -0.269726,0.2603 -0.734327,0.151 -1.10149,0.2266 1.051869,-0.15 -0.01716,0.5494 0.208498,0.6364 0.307691,0.1188 0.648457,0.1208 0.972686,0.1812 0,0 -18.9682182,0.01 -18.9682182,0.01 l 0,0 c 2.6978909,-0.3211 1.410669,-0.027 0.42029,-0.3571 -0.16176,-0.054 -0.02544,-0.4327 -0.226843,-0.4585 -1.176685,-0.6417 0.2710986,0.2811 0.3141361,-0.4719 0.014108,-0.2469 -0.9451321,-0.1278 -0.7116531,-0.2092 0.575735,-0.2006 1.2222611,-0.06 1.8204728,-0.1772 0.060697,-0.012 -0.057847,-0.1094 -0.086771,-0.1641 -0.3152018,-0.046 -0.6304036,-0.092 -0.9456054,-0.1379 -0.2537004,-0.062 -0.5219994,-0.08 -0.7610984,-0.1847 -1.016857,-0.4457 1.8369561,-0.4817 1.4783021,-0.762 -1.0070961,-0.7873 -3.1189533,-0.01 0.2173434,-0.7938 -2.2968985,-1.4763 0.3715943,0.5313 -0.054782,-0.8394 -0.1009395,-0.3245 -0.7689459,-0.1625 -0.9020007,-0.4753 -0.08915,-0.2095 0.4073893,-0.2554 0.5032559,-0.4619 0.4107679,-0.885 -0.9105267,-1.0265 -1.3529937,-1.2383 0.187911,-0.1409 1.6935325,-1.2276 1.8288411,-1.4912 0.1077432,-0.2099 -0.076493,-0.4659 -0.1028987,-0.7004 -0.026808,-0.2381 -0.097174,-0.4803 -0.056655,-0.7165 0.039863,-0.2323 0.4070196,-0.44 0.2902477,-0.6447 -0.1961261,-0.3439 -0.6748258,-0.4141 -1.0122387,-0.6211 -2.8768046,-1.8403 1.0415516,1.0101 0.764618,-1.1807 -0.080949,-0.6403 -1.4299004,-0.089 -1.8468414,-0.582 -0.22311,-0.2637 0.879492,-0.2724 0.834082,-0.6148 -0.189537,-1.4291 -3.4452638,0.294 0.7239392,-1.2537 -0.5067724,-0.2346 -1.2541822,-0.2127 -1.5203172,-0.7036 -0.166151,-0.3065 0.490707,-0.4954 0.736061,-0.7431 0.01005,-0.2716 0.172452,-0.5834 0.03016,-0.815 -0.235369,-0.3832 -0.803368,-0.4706 -1.050627,-0.8462 -0.774558,-1.1766 1.060367,-1.4468 1.6213745,-1.7317 0.8251117,-1.4633 0.4100541,-0.3444 0.4793596,-1.9281 0.015597,-0.3565 0.203985,-0.7119 0.1344406,-1.0619 -0.080828,-0.4067 -0.7471113,-0.735 -0.5656578,-1.1079 0.284252,-0.584 1.3829357,-0.4706 1.6268962,-1.0727 0.1667767,-0.4115 -0.4963564,-0.7364 -0.7445346,-1.1047 -2.8389335,-3.5121 0.4092232,0.9661 -0.8705904,-2.0785 -0.1664038,-0.3959 -0.5878681,-0.6301 -0.8332171,-0.9825 -0.225474,-0.3239 -0.832742,-0.7399 -0.572291,-1.0364 1.8154311,-2.0666 4.3426855,-0.063 0.383463,-2.1393 0.37862,-0.3467 0.7698146,-0.6802 1.135861,-1.0401 0.328596,-0.3231 1.1695144,-0.6043 0.9465963,-1.0077 -0.3668988,-0.6638 -1.7442293,-0.294 -2.0496963,-0.9883 -0.203052,-0.4615 0.9254496,-0.4826 1.2236717,-0.8891 1.7700321,-2.413 -3.1673359,1.0072 1.5423028,-1.7551 -2.2751559,-1.8502 -0.7302453,-0.01 0.4062097,-1.7908 0.1748523,-0.2741 -0.1530144,-0.7007 -0.4259296,-0.8774 -0.6583119,-0.4261 -1.9405145,-0.086 -2.2033333,-0.8244 -0.2027273,-0.5699 1.0898068,-0.5269 1.6173494,-0.8229 0.4625044,-0.2594 0.9000007,-0.5611 1.3500011,-0.8417 -0.6924765,-0.302 -1.4672136,-0.4606 -2.0774294,-0.906 -0.2513839,-0.1835 -0.6006912,-0.6814 -0.3498856,-0.8657 0.749536,-0.5507 1.943589,-0.244 2.6628141,-0.8337 0.4249637,-0.3484 -2.1459543,-2.001 -1.2241307,-2.7149 0.3677407,-0.3178 0.8936364,-0.515 1.1032222,-0.9536 0.3454145,-0.7229 -0.6906091,-1.5308 -0.8432607,-2.0161 -0.1004821,-0.3194 -0.051761,-0.6808 0.036179,-1.004 0.097625,-0.3587 0.6996411,-0.675 0.5073616,-0.9932 -0.3282928,-0.5432 -1.110304,-0.6154 -1.6654559,-0.9231 4.67643378,-1.8205 2.4443553,-0.3843 -1.0930738,-1.87032 -1.6039776,-0.6738 0.022062,-1.44121 0.1556824,-2.04011 0.5178538,-2.32107 -2.7402442,0.11388 1.8117018,-2.09955 -6.8135476,-2.63729 -0.3982357,0.53497 -0.1901751,-1.99952 0.068281,-0.83175 -1.8410482,-0.31075 -2.2886247,-1.01514 -0.189218,-0.29778 1.9857042,-1.44056 1.7887776,-1.90686 -0.2321533,-0.5497 -1.0288577,-0.60475 -1.5432866,-0.90713 0.5197789,-0.27878 1.1872794,-0.37867 1.5593364,-0.83635 0.1801243,-0.22157 -0.1551809,-0.55074 -0.2028406,-0.83229 -0.2221575,-1.31238 0.2772312,-0.47433 -0.9212879,-1.6337 -0.1062567,-0.26502 0.3320337,-0.59435 0.1816892,-0.83709 -0.2515949,-0.40621 -0.7951111,-0.53012 -1.1926661,-0.79518 -0.142418,-0.6448 -0.366498,-0.92477 0.195781,-1.49705 0.325311,-0.33109 1.1175896,-0.32528 1.1477785,-0.78846 0.027332,-0.41936 -0.7958045,-0.36243 -1.0510055,-0.69632 -0.474024,-0.62018 0.4229564,-1.12095 0.6973188,-1.37709 -1.7983918,-0.61474 -1.9881428,-0.2576 -2.2287828,-1.91228 -0.03465,-0.23828 -0.2401502,-0.51211 -0.10905,-0.71408 1.447762,-2.23038 0.930439,0.44563 1.171279,-1.57047 -0.09517,-0.27028 -0.12574,-0.57297 -0.285497,-0.81085 -0.214272,-0.31905 -1.0805092,-0.54738 -0.810067,-0.82045 0.599647,-0.60547 2.764784,-0.0285 2.4247769,-0.80994 -1.7957179,-4.12684 -5.9178077,2.08858 -0.6035199,-1.54574 0.2225013,-0.15216 -0.199594,-0.5008 -0.299391,-0.7512 2.2058715,-1.3368 1.1925919,-0.22307 -0.308105,-1.62534 -0.23539,-0.21995 -0.498817,-0.64882 -0.315301,-0.91361 0.362366,-0.52283 1.6474281,-0.35162 1.6329857,-0.98759 -0.015171,-0.66805 -1.1201617,-0.7289 -1.6802427,-1.09336 -0.0033,-0.35459 -0.0067,-0.70918 -0.01002,-1.06377 3.3909335,-2.74197 0.17307,0.39344 1.2843829,-1.9572 0.2526682,-0.53445 1.5417486,-1.21999 1.4809979,-1.59003 -0.064372,-0.3921 -1.0894444,-0.39256 -0.9235781,-0.75363 0.2466575,-0.53694 1.0735086,-0.49413 1.6102629,-0.7412 -3.2945146,-1.90024 0.1511716,0.31204 -1.8403248,-1.49859 -0.3433153,-0.31214 -1.1670248,-0.32873 -1.1445928,-0.79219 0.02415,-0.49888 0.8562064,-0.52613 1.2247201,-0.86327 1.5835315,-1.4487 -0.1472643,-1.04634 -2.0567981,-1.60014 3.9505339,-2.0377 0.641257,0.28325 0.597785,-1.62134 -0.0093,-0.40715 1.1481718,-0.40022 0.9568265,-0.75972 -0.2864735,-0.53823 -1.2772095,-0.22207 -1.7086795,-0.65287 -0.342129,-0.3416 1.08645,-0.94637 0.362062,-1.4045 -1.6749082,-1.13724 -0.9288162,-0.16765 -0.01396,-1.49645 0.164644,-0.23914 0.380348,-0.63853 0.183076,-0.85155 -0.44619,-0.48182 -1.3032522,-0.4021 -1.7709272,-0.86309 -0.7346336,-0.72413 0.402216,-1.69082 0.689245,-2.06442 -4.0368786,-2.49367 -0.701877,0.33319 -0.722385,-2.141 -0.004,-0.48481 -0.9312456,-0.58875 -0.9844936,-1.07065 -0.04718,-0.42694 2.0133908,-2.29697 1.7874286,-3.25633 0.3436992,-0.37567 0.6808172,-0.75746 1.0310982,-1.127 0.388487,-0.40985 1.4229836,-0.69876 1.1848938,-1.21082 -0.3865628,-0.83139 -1.9886268,-0.54348 -2.384986,-1.37024 -0.24975,-0.52095 0.9382752,-0.79704 1.0771202,-1.35783 0.232808,-0.94031 -1.2165882,-1.9218 -0.139353,-2.90275 0.841801,-0.68319 2.4098064,-1.38598 2.1450444,-2.8532 -0.096745,-0.53612 -1.0522554,-0.85159 -0.8890784,-1.37136 0.2188226,-0.69702 1.915977,-0.6258 1.7385579,-1.33449 -1.0117091,-4.04121 -4.1376511,0.8881 -1.3636905,-2.67734 -1.6855674,-3.72525 0.032013,1.11296 0.3405535,-2.77892 0.041976,-0.52948 -0.7351389,-0.88068 -0.7387759,-1.41181 -0.0036,-0.52421 0.8003233,-0.88045 0.7195357,-1.39841 -0.1601137,-1.02656 -2.0119377,-1.35179 -1.4913467,-2.73695 3.2904802,-4.62907 -0.640553,1.70419 0.378402,-2.62572 0.131832,-0.56021 1.4175497,-0.75042 1.1697657,-1.26986 -0.3855084,-0.80814 -2.4561637,-0.36411 -2.3745557,-1.25577 0.310424,-3.39172 6.0455668,0.72541 0.457244,-2.51315 0.115457,-0.41563 0.06986,-0.91581 0.346371,-1.24691 0.470244,-0.56309 1.7358033,-0.56459 1.7780838,-1.29699 0.040272,-0.6976 -1.5249108,-0.6307 -1.6268938,-1.32198 -0.08865,-0.60092 1.0764843,-0.75418 1.2340578,-1.3408 0.088998,-0.33134 -1.0945908,-2.50628 -1.2020028,-2.71549 0.283587,-0.63376 1.0403804,-1.96249 0.7835017,-2.76531 -0.1812147,-0.56636 -0.6840447,-0.97515 -1.0711507,-1.42652 -0.187143,-0.21822 -2.5502768,-2.19621 -1.9198722,-3.08488 0.644085,-0.90795 1.9101132,-1.14383 2.8651702,-1.71574 -0.487247,-0.57925 -0.920295,-1.20881 -1.461741,-1.73775 -0.6823322,-0.66656 -2.0065858,-0.90024 -2.1956938,-1.83518 -0.158786,-0.78504 1.5558926,-1.13581 1.4346286,-1.92751 -0.14498,-0.94654 -1.8202536,-1.09081 -2.0397096,-2.0229 -0.08251,-0.35045 2.2797058,-4.04379 2.3780998,-4.20288 0.492107,-5.32381 0.177022,1.12785 -0.4912232,-4.25062 -0.0889,-0.71552 0.04727,-1.4446 0.155286,-2.15749 0.3815712,-2.51833 1.5032632,-4.75676 2.8137785,-6.91176 -0.7826453,-0.832 -2.1021603,-1.38049 -2.3479373,-2.496 -0.8822912,-4.00444 4.479576,-1.67763 4.4713643,-5.17436 -0.00329,-1.40123 -2.43835,-1.52417 -3.2496573,-2.66665 -1.011584,-1.4245 0.122489,-3.75172 -1.236787,-5.09343 0.431441,-0.7858 1.12842,-1.47644 1.294323,-2.3574 0.136975,-0.72736 -0.398718,-1.43732 -0.440542,-2.17628 -0.03779,-0.66767 0.198355,-1.32707 0.204404,-1.99578 0.0055,-0.6041 -0.305271,-1.21558 -0.170024,-1.80437 0.139529,-0.60743 1.0954581,-1.00116 0.953889,-1.60812 -0.166506,-0.71386 -1.1095,-0.95828 -1.66425,-1.43743 0.999779,-0.62933 3.0460221,-0.99762 1.405375,-2.33531 -0.540845,-0.44097 -1.813987,-0.22217 -1.8821452,-0.91667 -0.172923,-1.762 3.730396,0.14257 0.6464292,-1.20182 -0.268752,-0.11716 -0.544869,-0.21664 -0.8173032,-0.32496 0,0 19.4454804,-0.74027 19.4454804,-0.74027 z"
         id="path5008"
         style="fill:#8800aa;fill-opacity:1;fill-rule:nonzero;stroke:none" />
      <path
         inkscape:connector-curvature="0"
         d="m -11.157341,1042.7547 c 0.09516,-0.2549 0.02592,-0.846 0.285486,-0.7646 0.378293,0.1186 0.247163,0.8257 0.582729,1.0369 0.19101,0.1201 0.398441,-0.3473 0.6148758,-0.2834 0.3069485,0.091 0.3703267,0.6948 0.6892838,0.6684 4.0383745,-0.3344 -2.0470496,-1.4312 1.7124883,-0.5885 0.3242397,-0.4314 0.480468,-1.073 0.972719,-1.2942 0.34592,-0.1554 0.7078243,0.277 1.0743598,0.3743 1.4974968,0.3977 0.8554146,-0.1061 2.2623634,0.8644 0.4117857,0.2841 0.6734914,0.9935 1.1707655,0.939 0.5498676,-0.06 0.768584,-0.7958 1.15287603,-1.1937 0.3878143,-0.151 0.7920489,-0.6409 1.1634429,-0.453 0.59012577,0.2984 0.55003597,1.331 1.14468937,1.6203 1.4866628,0.7233 1.0903264,-1.922 2.485655,-1.3762 2.9119813,1.1391 -0.3443806,3.6282 2.6769141,0.4268 4.433298,4.1277 -2.19752,-1.1769 2.8797788,-0.9138 0.9291582,0.048 0.7564882,1.7655 1.4514572,2.3842 1.075699,0.9574 3.702022,-0.5311 4.651413,-0.9873 4.862839,4.5106 -2.881067,-1.7501 3.109791,-1.9216 1.206144,-0.034 0.767796,2.3409 1.517011,3.2868 1.62164,2.0472 2.298716,-1.113 3.007943,-1.5718 0.426081,-0.2756 1.011583,0.082 1.517374,0.1226 0.921327,0.3639 1.890533,-0.2508 2.808513,-0.066 0.47458,0.096 0.833961,0.529 1.306501,0.6343 0.388858,0.087 0.795008,-0.053 1.192622,-0.078 1.39523,-0.087 0.742264,-0.1088 2.094659,0.074 2.191879,0.5353 -0.505522,0.196 1.759144,-1.9397 0.245728,-0.2318 0.50495,0.4887 0.829655,0.5817 0.271037,0.078 0.562476,-0.1564 0.839435,-0.1037 0.314516,0.06 1.393553,0.7771 1.642105,0.9341 0.260982,-0.3654 0.36793,-0.9248 0.782945,-1.0963 0.508046,-0.2099 1.78085,1.8401 2.210868,1.3822 1.305002,-1.3894 -0.01367,-2.5152 1.321667,-0.8961 2.256919,1.3307 -1.244226,-0.4218 1.478618,-0.4998 0.548864,0.5336 1.014084,1.2418 1.91214,1.1976 2.733654,-0.1347 -0.527936,-1.0841 2.372372,0.043 0.79194,-1.2882 0.935421,-3.0317 2.629136,-1.6205 0.594677,0.4955 0.719362,1.4929 1.407787,1.8468 0.437901,0.2251 0.937379,-0.3189 1.424474,-0.3908 3.048124,-0.4499 -0.180752,0.5701 2.8851,-0.5688 1.000397,0.6848 1.941511,-0.4685 2.892633,-0.284 0.548501,0.1064 0.864649,0.8244 1.419303,0.8917 0.505672,0.061 0.922998,-0.4738 1.427198,-0.5462 4.376701,-0.6292 -1.57288,1.101 2.718702,-0.2891 0.503877,-1.4247 1.704634,0.1912 2.324246,-0.2834 0.538565,-0.4125 0.311407,-1.7773 0.989801,-1.7782 2.961331,0 -0.591059,3.2865 1.845225,1.1601 0.292381,-0.2552 0.527233,-0.5696 0.79085,-0.8544 0.246132,0.3757 0.443064,0.7888 0.738397,1.1272 0.07228,0.083 1.034259,0.8842 1.345744,0.7053 0.296327,-0.1702 0.270952,-0.6702 0.552832,-0.8634 0.153829,-0.1054 0.365942,0.072 0.548913,0.1083 0.185612,-0.3498 0.371224,-0.6997 0.556836,-1.0495 0.793142,1.65 0.11368,1.2885 1.300574,1.2013 0.221776,-0.016 0.517837,0.1593 0.667098,-0.01 0.360658,-0.3983 0.266867,-1.1088 0.666811,-1.4676 0.384785,-0.3452 1.403006,0.8156 1.453746,0.863 0.674115,0.9819 1.084435,-0.515 1.606195,-0.348 0.433617,0.1387 0.471714,0.8117 0.843991,1.0738 0.80085,0.5638 1.148392,-0.1696 1.972722,-0.02 0.421887,0.077 0.763716,0.3903 1.145573,0.5854 0.414086,-0.7761 0.438855,-1.97 1.242259,-2.3282 0.543167,-0.2422 0.858229,0.8296 1.341488,1.1762 0.416657,0.2989 0.831301,0.7765 1.343335,0.7495 0.551602,-0.029 0.858657,-0.7627 1.395114,-0.8943 0.482847,-0.1185 0.983052,0.1623 1.479518,0.1888 0.518342,0.028 1.038009,-0.018 1.557014,-0.027 3.914623,1.8025 -0.666752,0.2307 3.218685,-0.1753 0.552322,-0.058 1.01162,0.706 1.555867,0.5956 0.623504,-0.1265 0.9177,-0.9047 1.475563,-1.2106 1.45797,-0.7993 1.50669,-0.2954 2.749171,0.5105 0.44434,0.1396 0.8758,0.5077 1.33301,0.4189 0.5186,-0.1007 0.76311,-0.847 1.28525,-0.9273 0.44634,-0.069 0.79467,0.486 1.24321,0.5383 0.40423,0.047 0.7942,-0.3284 1.19427,-0.2537 2.54958,0.4759 -0.17255,1.2135 2.23689,0.2701 0.34676,-0.089 0.69353,-0.1776 1.0403,-0.2664 0.34131,0.1789 0.6465,0.6146 1.02394,0.5368 0.46833,-0.096 0.58962,-1.0513 1.06018,-0.9663 0.55614,0.1003 0.53366,1.0798 1.03316,1.3442 0.53731,0.2843 1.81095,-0.8987 2.01608,-1.0563 2.48696,4.4239 -0.56293,0.1234 2.0963,-0.7425 0.68826,-0.2242 0.37968,1.8573 1.1034,1.8702 0.70412,0.013 0.54112,-1.3478 1.05275,-1.8317 0.46655,-0.4413 1.76592,-0.1029 2.23471,-0.028 1.70714,4.3091 0.41779,3.4895 2.37692,1.2912 0.33234,-0.3729 0.67924,-0.9102 1.17851,-0.9256 0.49326,-0.015 0.73238,0.9735 1.2107,0.8521 2.96698,-0.7533 -0.4363,-2.5304 2.23799,-0.7228 2.27598,-1.6711 -0.13031,-0.4575 2.11929,0.8818 0.31067,0.185 0.6123,-0.4979 0.97336,-0.4787 0.37151,0.02 0.66112,0.3504 0.95275,0.5814 0.33407,0.2646 0.55133,1.1226 0.91218,0.8959 0.63101,-0.3966 0.60746,-1.3612 0.91119,-2.0417 0.29528,0.2157 0.55265,0.7977 0.88582,0.647 0.50626,-0.2289 0.30969,-1.3104 0.85165,-1.4328 0.85661,-0.1936 0.66651,2.2186 1.54092,2.137 3.83404,-0.358 -1.35301,-1.9831 1.49893,-0.9365 0.0876,0.02 1.35597,0.3368 1.47408,0.2513 0.35923,-0.2602 0.37342,-0.8357 0.7084,-1.1264 0.6341,-0.5503 0.82923,0.2329 1.44151,0.095 0.27497,-0.062 0.44434,-0.3469 0.66652,-0.5204 0.004,0.01 0.46918,2.3492 1.42792,1.5432 0.36438,-0.3063 0.34935,-0.9737 0.76482,-1.206 0.0946,-0.053 1.58227,0.7657 1.62149,0.7357 0.4974,-0.3804 0.56116,-1.1197 0.84173,-1.6795 0.29188,0.3145 0.58377,0.6291 0.87565,0.9436 0.30575,-0.2671 0.59316,-1.0458 0.91724,-0.8013 0.64233,0.4847 0.44142,1.5987 0.95767,2.2159 0.46803,0.5595 1.63306,-0.1761 1.97058,-0.3244 0.29579,-0.1299 0.59444,-0.2532 0.89167,-0.3799 1.09202,-0.499 0.59519,-0.5746 1.44648,0.425 0,0 0.10004,16.3074 0.10004,16.3074 l 0,0 c -1.10066,-0.5934 -0.56755,-0.6247 -1.54842,0.4111 -0.29733,0.1456 -0.57527,0.5334 -0.89198,0.4369 -1.86167,-0.5673 -0.0519,-1.3912 -1.97084,-1.2602 -1.3447,0.092 -1.35911,1.2247 -1.87345,2.2983 -0.57411,0.1225 -0.58132,-1.0201 -0.87197,-1.5301 -1.84796,-1.5539 0.0439,-0.4017 -1.65634,1.9441 -0.17483,0.2413 -0.47249,-0.4607 -0.7703,-0.4531 -1.54251,0.039 0.0311,2.1474 -1.42725,-0.99 -0.2879,-0.1592 -0.43668,0.4922 -0.65502,0.7383 -0.21579,-0.2583 -0.36225,-0.596 -0.64736,-0.7748 -0.41984,-0.2634 -1.14732,0.264 -1.40334,-0.4912 -0.26724,-0.1967 -0.50356,-0.4323 -0.7524,-0.6518 -0.26885,-0.2372 -0.44574,-0.6672 -0.80062,-0.7182 -0.28827,-0.041 -0.4776,0.3334 -0.7164,0.5001 -0.45879,0.7481 -0.53442,1.4147 -1.49041,1.4745 -0.27634,0.017 -0.53331,-0.2201 -0.80858,-0.1902 -0.31132,0.034 -0.55322,0.4185 -0.86286,0.3716 -0.65363,-0.099 -0.92126,-1.1497 -1.73747,-0.9562 -0.30363,0.9032 -0.11027,2.1929 -0.91089,2.7095 -0.49966,0.3225 -0.54886,-1.0621 -0.91103,-1.5338 -0.26448,-0.3444 -0.58765,-1.129 -0.95073,-0.8907 -0.65755,0.4314 -0.25237,1.8285 -0.96973,2.1509 -0.69249,0.3112 -0.93206,-2.738 -2.10608,-0.8672 -1.69901,-0.4879 -0.85281,-0.01 -2.22313,-1.8928 -0.62404,-0.2173 -1.92231,1.8337 -2.35577,1.7809 -2.76328,-0.3363 0.40684,-3.2107 -2.34702,0.1039 -0.38097,-0.2869 -0.68208,-0.7378 -1.14289,-0.8605 -0.0274,-0.01 -2.25304,0.5065 -2.2787,0.5147 -0.38775,0.125 -0.73132,0.5554 -1.12918,0.4677 -0.46659,-0.1028 -0.63676,-0.7534 -1.07113,-0.9524 -0.32096,-0.147 -0.70589,-0.015 -1.05884,-0.023 -4.55045,-2.6105 3.66061,1.6458 -2.02233,0.8584 -0.6582,-0.091 -0.34928,-1.5887 -0.9997,-1.7246 -0.53432,-0.1117 -0.49268,1.0688 -0.98219,1.3103 -0.69241,0.3417 -1.87054,-1.2001 -2.04975,-1.384 -0.35588,0.4836 -0.57669,1.1052 -1.06763,1.4509 -0.31264,0.2202 -0.77264,0.01 -1.14231,0.1054 -0.4139,0.1095 -0.75466,0.4546 -1.17936,0.5088 -1.2495,0.1593 -2.57124,-0.9871 -3.84786,-0.7739 -0.45683,0.025 -0.93082,0.2017 -1.370501,0.075 -0.54541,-0.157 -0.88804,-0.9422 -1.45295,-0.8876 -0.623703,0.06 -0.845642,1.1327 -1.471128,1.1703 -0.611665,0.037 -0.954597,-0.8426 -1.549633,-0.989 -1.040438,-0.2559 -2.142042,0.7318 -3.196093,0.3419 -2.752162,-1.1465 -0.457534,-0.7575 -2.991863,0.9409 -1.770785,1.1868 -1.09032,-0.2847 -2.708141,-0.4771 -0.467212,-0.056 -0.870439,0.3724 -1.330351,0.4717 -0.420502,0.091 -0.858125,0.062 -1.287188,0.093 -0.413243,0.3131 -0.742348,0.793 -1.239729,0.9393 -0.368952,0.1085 -0.753521,-0.1549 -1.127885,-0.2429 -0.285027,-0.067 -1.673876,-0.3806 -1.938537,-0.6423 -2.756233,-2.7253 0.629403,-0.3463 -1.467465,-1.734 -0.219093,0.3295 -0.44694,0.6533 -0.657278,0.9885 -0.206721,0.3293 -0.226674,1.1335 -0.593459,1.0043 -0.496294,-0.1747 -0.193151,-1.1714 -0.645231,-1.4406 -0.849605,-0.506 -0.492122,2.1142 -1.21957,2.0346 -0.524529,-0.057 -0.380081,-0.9845 -0.570121,-1.4767 -2.186983,2.6637 1.010596,-0.7847 -1.132371,0.1835 -0.371381,0.1678 -0.33152,1.2886 -0.650623,1.0351 -0.566526,-0.45 -0.07532,-2.5065 -0.652432,-2.0701 -3.504206,2.6495 1.043125,3.5137 -1.466387,2.8838 -0.296754,-0.5731 -0.247073,-1.7716 -0.890262,-1.7192 -0.684847,0.056 -0.19842,1.7845 -0.880964,1.8637 -0.62913,0.073 -0.347447,-1.4226 -0.937537,-1.6527 -0.414191,-0.1614 -0.580979,1.1027 -0.979324,0.9054 -2.321541,-1.1503 0.17687,-4.5238 -2.30102,0.5055 -1.348293,-1.346 -0.945775,-1.6637 -2.717827,-1.0928 -0.505728,0.163 -0.914806,0.6138 -1.442099,0.6791 -1.930277,0.2393 -2.418463,-2.1615 -4.336348,-1.0653 -3.928828,-1.2475 1.687869,0.031 -2.85504,1.6416 -0.562698,0.1995 -0.824236,-1.083 -1.421211,-1.0899 -0.583315,-0.01 -0.865967,0.8105 -1.394568,1.0573 -1.830913,0.8546 -1.677789,-0.2142 -2.715834,-1.7462 -0.411756,0.308 -0.823513,0.616 -1.235269,0.924 -0.37937,-0.035 -0.808672,-0.2978 -1.13811,-0.1063 -0.490361,0.2849 -0.57094,1.0159 -1.021001,1.361 -1.323293,1.0147 -1.173151,-1.6529 -2.368599,-0.616 -2.68292,1.9435 1.428414,-0.7161 -1.310707,-0.04 -0.35088,0.087 -0.332891,0.9397 -0.681253,0.8435 -0.462153,-0.1277 -0.369116,-0.9278 -0.737051,-1.2352 -0.582072,-0.4863 -1.278716,0.4888 -1.509103,0.7035 -0.264865,-0.7481 -0.217718,-1.6993 -0.794595,-2.2444 -0.263639,-0.2491 -0.449683,0.6386 -0.79798,0.7398 -0.939172,0.2728 -0.712498,-1.0237 -1.639839,0.049 -1.955861,2.2629 0.217131,1.273 -1.85454,1.98 -0.03482,0.031 -1.618035,1.6715 -2.06465,1.2228 -0.70054,-0.7038 -0.733529,-3.3872 -2.515709,-3.3473 -0.533573,0.012 -0.860032,0.7654 -1.393215,0.789 -0.54176,0.024 -0.990975,-0.4408 -1.486463,-0.6612 -0.505555,0.8569 -0.559715,2.2985 -1.516667,2.5705 -0.732395,0.2082 -0.835568,-1.3672 -1.51624,-1.7084 -0.448871,-0.225 -0.99091,0.2035 -1.493009,0.1999 -0.511613,0 -1.049244,-0.018 -1.518846,-0.2212 -0.581426,-0.2514 -0.913677,-1.1304 -1.546596,-1.1043 -0.665558,0.027 -1.048521,0.8219 -1.572781,1.2328 -0.529242,0.053 -1.063245,0.2477 -1.587727,0.1592 -0.566419,-0.096 -1.111073,-1.0284 -1.577644,-0.6933 -0.895092,0.6428 -0.502197,2.5425 -1.534436,2.9283 -0.727993,0.2722 -0.856305,-1.3381 -1.4803762,-1.8013 -1.463168,-1.086 -1.8760669,-0.064 -2.948171,0.8294 -0.4662957,-0.4929 -0.9544592,-0.966 -1.398887,-1.4787 -0.4554835,-0.5255 -0.6368239,-1.4186 -1.2983566,-1.6329 -0.4732863,-0.1533 -0.7987606,0.6109 -1.2568171,0.805 -0.3814721,0.1617 -0.8565293,0.043 -1.2187338,0.2444 -1.91114077,1.0615 -0.3866787,1.6879 -2.23890247,0.227 -2.35201093,0.9742 0.108424,0.289 -2.22053693,-0.1036 -0.3770155,-0.064 -0.7487514,0.2013 -1.1309556,0.1912 -0.377739,-0.01 -0.7336452,-0.3165 -1.1056527,-0.2502 -0.4008299,0.071 -0.6488088,0.5369 -1.0443649,0.6334 -0.3081364,0.075 -0.6264404,-0.1 -0.9396606,-0.1496 -1.9230923,-0.9417 0.1566278,-0.2336 -1.5663438,0.099 -2.5729973,0.497 1.3034542,-0.9471 -1.0895443,-0.614 -0.78168,0.1088 0.1184278,1.6972 -0.698715,-0.451 0,0 -0.625743,-16.4371 -0.625743,-16.4371 z"
         id="path5024"
         style="fill:#8800aa;fill-opacity:1;fill-rule:nonzero;stroke:none" />
      <path
         inkscape:connector-curvature="0"
         d="m -11.324925,830.82265 c 0.200617,0.1135 0.820738,0.52671 1.114301,0.46449 0.2511206,-0.0532 0.4364096,-0.53567 0.6561996,-0.40305 0.42517,0.25653 0.283075,1.27116 0.7796414,1.2694 0.5135208,-0.002 0.4814414,-0.93308 0.8643737,-1.27523 0.2484669,-0.22201 0.6272153,-0.22516 0.940823,-0.33773 0.3476021,-0.11055 0.7075607,-0.47539 1.0428063,-0.33166 1.4974216,0.64201 0.7602938,1.93465 2.3715759,2.4732 0.4045797,0.13522 0.7945515,-0.35583 1.2200411,-0.38631 2.15472737,-0.15434 0.349869,1.34555 2.30393697,-1.37348 0.35893297,-0.56139 0.45249041,-1.45129 1.07679893,-1.68417 1.0382487,-0.38727 1.6084806,3.21079 3.3165865,2.42292 5.3293334,-2.45817 -2.3809477,-0.2089 2.3350444,-1.45333 0.4041463,0.73326 0.4984374,1.76251 1.2124388,2.19979 0.4050429,0.24807 0.7839034,-0.57599 1.2435523,-0.69565 0.4004593,-0.10425 0.8324688,0.11818 1.2404521,0.049 0.442953,-0.0751 0.847936,-0.29893 1.261985,-0.47333 0.438575,-0.18472 0.822108,-0.54145 1.293973,-0.6032 0.433031,-0.0567 0.855254,0.17734 1.282881,0.26601 4.573166,-3.17793 -2.141604,0.93431 2.463492,-0.057 0.587777,-0.12653 0.633719,-1.41221 1.228022,-1.32113 1.182796,0.18126 1.139595,2.8788 2.327307,2.7332 0.556637,-0.0682 0.709009,-0.86909 1.063513,-1.30363 0.34193,0.47231 0.45226,1.52207 1.02579,1.41693 0.677227,-0.12416 0.645959,-1.21854 1.025493,-1.793 0.313373,-0.47432 0.537659,-1.09504 1.048021,-1.34546 0.45738,-0.22443 1.779627,0.83333 2.140341,0.79744 0.437634,-0.0435 0.742382,-0.47175 1.113572,-0.70762 0.339891,2.29492 1.605234,-0.13905 2.167248,0.32782 0.644491,0.53538 0.40775,1.77692 1.088197,2.26579 0.350434,0.25177 0.665522,-0.6103 1.086932,-0.70307 3.605444,-0.79366 -1.637519,1.67843 2.267911,-0.39695 2.216284,0.8293 0.04785,0.22739 2.251066,0.25319 0.372524,0.004 0.728027,0.18175 1.100297,0.19618 0.376961,0.0146 0.805089,-0.30753 1.126389,-0.10984 2.343307,1.44177 -0.08011,1.94022 2.224928,1.08528 3.668047,1.41291 -2.114537,-0.43896 2.172741,-0.72132 0.483513,-0.0318 0.604457,0.83833 1.064782,0.98966 0.346208,0.11381 0.739165,-0.10849 1.053204,-0.2934 0.404841,-0.23838 0.607993,-1.11021 1.047177,-0.94335 0.631721,0.23999 0.696019,1.15855 1.044029,1.73782 0.610733,-1.29225 0.572761,-3.12867 2.064523,-1.7677 0.437299,0.39896 0.480703,1.27516 1.051811,1.43083 0.43732,0.11921 0.649752,-1.05623 1.056476,-0.85614 2.757281,1.35643 -0.419595,2.77595 2.113504,1.26253 0.363132,-1.04845 0.465013,-2.22815 1.089397,-3.14536 0.207511,-0.30482 0.782915,-0.25813 1.103644,-0.0762 1.738063,0.98614 0.405254,1.5657 2.159686,2.42494 0.308704,0.15119 0.684755,-0.0673 1.028368,-0.0766 0.336669,-0.009 0.673434,0.0142 1.010151,0.0214 2.640322,1.90881 -0.756182,-0.0425 2.025572,-0.33285 0.42971,-0.0448 0.606022,1.06744 0.979014,0.8494 0.640079,-0.37416 0.315511,-1.67095 0.982008,-1.99573 0.428107,-0.20861 0.551419,0.83179 0.979851,1.03973 0.300428,0.14582 0.665788,-0.053 0.998682,-0.0794 4.317407,-0.0245 -3.180755,0.26052 2.003442,-1.03073 0.151503,-0.0377 1.878938,1.10327 1.935607,1.18283 0.441099,0.6193 0.396275,2.55193 0.976992,2.06115 0.974565,-0.82363 0.64451,-2.46925 0.966766,-3.70388 0.374647,0.90509 0.386164,2.07088 1.123942,2.71526 0.338929,0.29603 0.720624,-0.54524 1.117282,-0.75776 0.377864,-0.1494 0.755729,-0.2988 1.133593,-0.4482 0.379171,0.12341 0.757494,0.49103 1.137513,0.37025 0.510261,-0.16218 0.763538,-0.75178 1.167721,-1.10292 0.37781,-0.32824 0.784059,-0.62222 1.176089,-0.93333 3.511543,2.07774 -0.988505,-0.36644 2.471648,0.87406 1.272169,0.45609 1.160138,1.12629 2.606292,1.06993 5.677994,-0.22128 -2.816478,-0.76953 2.616933,-0.31282 0.769871,-0.004 1.806874,0.0975 2.516935,-0.33991 0.48218,-0.29701 0.695997,-0.96246 1.216212,-1.18627 0.381547,-0.16414 0.874354,0.32824 1.239287,0.12988 0.560492,-0.30465 0.598839,-1.58774 1.22577,-1.46975 0.757386,0.14254 0.840764,1.29187 1.261146,1.9378 3.196965,-0.37038 -0.637035,0.0497 2.534728,-0.2223 0.426834,-0.0366 0.869025,-0.27288 1.277231,-0.14291 0.487816,0.15533 0.706742,0.98036 1.216856,0.93706 3.00935,-0.25543 -0.603486,-2.5764 2.29,-0.21933 0.36706,0.24648 0.74641,1.00332 1.10118,0.73946 0.69525,-0.51711 0.44593,-1.7753 1.08224,-2.36341 0.28528,-0.26368 0.8224,0.0777 1.1177,0.33009 0.49421,0.42243 0.48134,1.53486 1.12911,1.59039 0.59636,0.0511 0.62272,-1.07646 1.12828,-1.39687 0.3156,-0.20003 0.74705,-0.019 1.12057,-0.0284 0.82658,0.3819 1.30333,0.8408 2.25525,0.36657 0.44367,-0.22104 0.62213,-0.98299 1.11781,-0.98073 0.50327,0.002 0.70305,0.73966 1.13907,0.99099 0.255,0.14699 1.97579,0.5069 2.26297,0.57067 0.19289,-0.25667 1.1874,-2.12401 2.10389,-1.78079 0.49508,0.1854 0.63898,1.45261 1.08014,1.16131 0.78232,-0.51658 0.32919,-2.04343 1.0885,-2.59328 0.40344,-0.29215 0.64721,0.81341 1.10792,1.00276 0.36827,0.15134 0.79539,-0.0381 1.19308,-0.0571 1.26313,-0.26753 1.47548,1.83493 2.5094,1.82345 0.60124,-0.007 0.79579,-0.95757 1.3453,-1.20165 0.42733,-0.1898 0.9634,0.14146 1.40262,-0.0189 1.7714,-1.28032 0.83963,-0.8207 2.76055,-1.44715 0.0517,0.0458 2.50848,2.26811 2.68214,2.25838 0.58923,-0.033 0.7403,-1.41945 1.29216,-1.21033 0.78138,0.29611 0.4719,1.86679 1.24923,2.17339 0.53385,0.21057 0.79208,-0.83655 1.24431,-1.18986 0.36482,-0.28502 0.79448,-0.47552 1.19172,-0.71328 0.14174,-0.10881 1.79866,-1.60914 2.33198,-1.23325 0.61816,0.43568 0.45214,1.66142 1.14838,1.9567 0.45894,0.19463 0.63158,-0.87431 1.11477,-0.99691 2.7429,-0.69597 -0.74007,2.65949 2.19357,-0.87937 0.74749,0.75357 0.98674,1.54844 2.1615,1.0153 0.33766,-0.15324 1.38125,-1.61808 2.14342,-0.95462 2.46647,2.14702 -0.31606,1.81786 1.91867,1.86295 0,0 -0.0826,16.53008 -0.0826,16.53008 l 0,0 c -0.28483,-0.31032 -0.49082,-0.71845 -0.85451,-0.93095 -2.28964,-1.33781 0.49114,1.97671 -2.04384,1.74816 -0.77627,-0.07 -0.56819,-1.48185 -1.06742,-2.0804 -1.25751,-1.50768 -1.65672,0.50459 -2.13592,1.30678 -0.14581,-0.12204 -1.69613,-1.5907 -2.169,-1.38094 -0.55401,0.24577 -0.59835,1.10669 -1.09867,1.44878 -1.70502,1.16581 -2.14124,-2.72358 -3.49512,0.0824 -0.41713,-0.42998 -0.67028,-1.14442 -1.2514,-1.28996 -0.0582,-0.0146 -2.43464,1.34912 -2.47455,1.35549 -1.8205,0.29041 -1.20505,-1.09284 -2.60043,-1.86794 -0.38688,-0.21491 -0.88192,0.0753 -1.32289,0.11291 -1.42742,0.77597 -1.1333,0.88812 -2.72219,0.75827 -0.46865,-0.0383 -0.98774,-0.49077 -1.38906,-0.24575 -0.66466,0.40581 -0.56642,1.98953 -1.34139,1.9128 -3.65661,-0.36205 0.68075,-4.53547 -2.5404,-0.76098 -0.40207,0.15443 -0.80413,0.30887 -1.2062,0.46331 -0.38914,-0.17166 -0.74701,-0.57939 -1.16743,-0.51498 -0.45401,0.0696 -0.67244,0.64229 -1.07745,0.85891 -1.50153,0.80312 -0.90069,0.007 -2.08762,-0.89072 -0.30171,-0.22825 -0.7063,-0.2714 -1.05945,-0.4071 -0.80624,0.72667 -1.21586,1.24967 -2.24608,1.62535 -0.36997,0.13491 -0.79647,0.0671 -1.16185,0.21399 -0.43194,0.17362 -0.72489,0.70802 -1.18983,0.73126 -0.29171,0.0146 -2.07072,-1.23811 -2.25582,-1.36283 -0.37339,-0.31507 -0.64338,-0.83862 -1.12017,-0.94521 -1.20887,-0.27025 -1.49465,1.44004 -2.25394,1.72867 -1.50798,0.57321 -1.58715,-2.97133 -3.27986,-0.69908 -0.89504,0.29048 -1.296035,0.57325 -2.26007,0.28337 -0.431485,-0.12973 -0.755137,-0.54072 -1.197292,-0.62728 -0.41259,-0.0808 -0.832276,0.15705 -1.252593,0.14766 -2.370941,-0.053 -0.114428,-0.56217 -2.496701,0.19572 -0.415257,0.16332 -0.855364,0.70604 -1.245769,0.48996 -0.666631,-0.36898 -0.673808,-1.43529 -1.284742,-1.89059 -0.325733,-0.24276 -0.963545,-0.29126 -1.218469,0.025 -0.669794,0.83106 -0.241014,2.49327 -1.195772,2.97047 -4.789082,2.39363 2.518987,-7.71421 -2.575171,0.3104 -0.428211,-0.0428 -0.854294,-0.13115 -1.284632,-0.12847 -0.444706,0.003 -0.959421,0.39609 -1.326272,0.14471 -0.660303,-0.45247 -0.659354,-1.58698 -1.355388,-1.98228 -0.405605,-0.23035 -0.866658,0.35572 -1.320736,0.46244 -2.329511,0.54752 -0.19367,-0.45353 -2.440606,0.81559 -0.385257,-0.0272 -0.77133,-0.0447 -1.155771,-0.0817 -0.38211,-0.0368 -0.76025,-0.16717 -1.143136,-0.13962 -0.379642,0.0273 -0.721564,0.27738 -1.101444,0.30115 -0.371391,0.0232 -0.732632,-0.14626 -1.104366,-0.16314 -0.961532,-0.0437 -1.242749,0.10155 -2.162129,0.33762 -4.578615,-3.06805 4.740125,2.67751 -2.089795,1.54731 -0.918364,-0.15197 -0.294321,-2.03291 -1.038296,-2.59236 -0.38769,-0.29154 -0.721734,0.66328 -0.986808,1.06952 -1.621875,2.48562 -0.547613,3.29154 -2.017649,-1.06269 -0.338,0.41401 -0.672501,0.83089 -1.013999,1.24202 -0.639551,0.76994 -0.905509,1.80229 -2.001436,0.87743 -0.43194,-0.36452 -0.473436,-1.15907 -0.997268,-1.37131 -0.363213,-0.14716 -0.694413,0.36348 -1.04162,0.54521 -0.340157,-0.16468 -0.680313,-0.32936 -1.02047,-0.49404 -2.934948,2.1643 1.810881,-0.84076 -1.986637,-2.25873 -0.774252,-0.2891 -0.294025,1.83176 -0.993783,2.27152 -0.407268,0.25594 -0.602643,-0.82322 -1.056279,-0.98318 -0.809452,-0.28544 -1.669564,0.8194 -2.064682,1.18395 -1.5568,0.55506 -0.800441,0.64739 -2.174234,-0.70579 -0.549983,0.0478 -0.530373,1.10885 -1.056769,1.27521 -0.392237,0.12395 -0.716471,-0.40448 -1.078102,-0.60053 -1.615393,-0.87578 -0.870975,-0.88591 -2.150088,0.89764 -0.351745,-0.55177 -0.569104,-1.2173 -1.055237,-1.65531 -1.89423,-1.70671 -0.446492,1.67539 -2.136156,1.24086 -0.747519,-0.19224 -0.318481,-1.9402 -1.082942,-2.04668 -0.685806,-0.0955 -0.759329,1.15811 -1.138994,1.73717 -0.364504,-0.12806 -0.729008,-0.25612 -1.093511,-0.38418 -0.371117,-0.0297 -0.749782,-0.16923 -1.113349,-0.0891 -0.420787,0.0928 -0.722798,0.63637 -1.151017,0.5884 -0.220958,-0.0248 -1.797932,-1.62773 -2.209929,-1.44007 -0.609804,0.27775 -0.772225,1.09531 -1.158337,1.64297 -0.380834,0.11346 -0.761667,0.22692 -1.142501,0.34039 -0.368463,-0.47061 -1.384433,-2.05472 -2.221983,-2.18196 -0.38212,-0.0581 -0.68535,0.45392 -1.07169,0.44266 -0.384531,-0.0112 -0.655143,-0.46812 -1.038147,-0.50414 -1.193345,-0.11222 -1.532233,0.92231 -2.121259,1.70468 -0.338565,-0.25183 -0.65608,-0.53475 -1.015696,-0.75548 -0.331803,-0.20365 -0.783055,-0.22847 -1.049654,-0.51218 -0.459418,-0.4889 -0.380792,-1.63909 -1.046912,-1.71896 -0.592192,-0.071 -0.532118,1.12571 -1.018184,1.47136 -0.567033,0.40323 -1.658602,-0.68889 -2.018528,0.53161 -0.366474,-0.3983 -0.558187,-1.1978 -1.099422,-1.19489 -0.555158,0.003 -0.634095,0.99608 -1.147641,1.20698 -0.378326,0.15537 -0.794378,-0.26057 -1.202928,-0.24166 -0.428305,0.0198 -0.829526,0.21948 -1.236465,0.35453 -1.437952,0.4772 -1.201842,0.4378 -2.549165,1.23491 -1.182818,-0.97671 -1.063518,-1.32241 -2.574465,-1.08965 -0.437746,0.0674 -0.846437,0.58461 -1.259236,0.42409 -0.5791271,-0.2252 -0.636585,-1.55542 -1.2368163,-1.39471 -3.1258865,0.83692 0.4786854,3.92737 -2.4381946,0.7457 -0.3943186,0.11981 -0.7721582,0.32646 -1.1829559,0.35944 -0.3782715,0.0304 -0.7722346,-0.31379 -1.1250771,-0.17409 -0.4665374,0.1847 -0.615951,1.23583 -1.081045,1.04752 -0.6861086,-0.2778 -0.3609551,-1.99382 -1.0984094,-1.92996 -2.76126843,0.2391 0.6340611,5.59359 -2.19461323,-0.12823 -0.3915198,0.81717 -0.6162595,1.73782 -1.17455927,2.45152 -0.7932596,1.01405 -1.7294883,0.69883 -2.4672855,-0.091 -0.5218085,-0.55861 -0.4905575,-2.04467 -1.2456179,-1.92546 -4.5802282,0.72318 1.094646,3.67813 -2.2227566,1.67193 -0.3089287,-0.064 -0.6158261,-0.13882 -0.9267862,-0.19214 -0.2656278,-0.0456 -0.5946237,0.0682 -0.8017646,-0.10425 -0.3180198,-0.26469 -0.2075578,-1.1343 -0.6173228,-1.0769 -0.447074,0.0626 -0.238648,0.90832 -0.545172,1.23973 -0.1019706,0.11026 -0.2566406,-0.15604 -0.3849616,-0.23406 -0.03138,0.251 -0.06276,0.50201 -0.09415,0.75301 0,0 -0.885068,-19.07556 -0.885068,-19.07556 z"
         id="path5022"
         style="fill:#8800aa;fill-opacity:1;fill-rule:nonzero;stroke:none" />
    </g>
    <g
       transform="matrix(0.20981159,0,0,0.21865836,28.528895,887.13734)"
       inkscape:label="Calque 1"
       id="layer1-6">
      <g
         transform="matrix(0.94056,0.16672,-0.15449,0.96549,238.34,-250.08)"
         style="fill:#000000;fill-opacity:0.41779001;stroke:#000000"
         id="g4026">
        <path
           transform="translate(-84.007,26.897)"
           inkscape:connector-curvature="0"
           sodipodi:nodetypes="csccsssccccccccsccccccccssssccssssccccsccccc"
           d="M 129.5,251.97 C 93.529,252.84 64.781,271.8 64.781,293 c 0,15.62 12.696,29.09 33.657,35.44 5.832,11.31 19.392,24.29 18.592,35.53 -73.65,2.05 -155.4,77.47 -155.4,172.91 -0.005,95.43 77.462,172.87 172.9,172.87 95.44,0 172.88,-77.44 172.88,-172.87 0,-56.6 -27.35,-102.91 -62.22,-134.48 0.19,-0.18 0.36,-0.37 0.53,-0.57 l 5.25,-6.22 1.37,1.1 c 2.04,1.66 4.79,1.62 6.22,-0.06 l 3.6,-4.22 c 1.42,-1.69 0.94,-4.37 -1.1,-6.03 l -17.19,-14.04 c -0.09,-0.07 -0.18,-0.14 -0.28,-0.21 -2,-1.44 -4.61,-1.36 -5.97,0.25 l -3.59,4.25 c -1.43,1.68 -0.94,4.36 1.09,6.03 l 1.85,1.5 -5.28,6.22 c -0.42,0.48 2.11,3.26 -0.94,1.56 -23.8,-15.42 -55.77,-27.94 -82.75,-28.74 -1.5,-8.54 10.42,-23.09 15.47,-36 18.87,-6.76 35.97,-19.56 35.97,-34.22 0,-21.71 -30.15,-41.03 -67.32,-41.03 -0.58,0 -1.17,-0.01 -1.74,0 h -0.88 z m 0.78,10.59 c 0.22,0 0.46,0.01 0.69,0 h 1.72 c 29.43,0 53.31,13.52 53.31,30.16 0,9.24 -9.16,20.17 -19.83,25.55 -2.15,-3.7 -10.25,-9.2 -18.71,-11.67 -14.14,1.32 -22.94,0.59 -36.34,-0.54 -8.93,2.71 -13.264,6.23 -14.714,10.25 -10.856,-5.52 -17.062,-14.04 -17.062,-23.59 0,-16.19 22.606,-29.45 50.936,-30.16 z m -19.16,43.5 38.04,1.1 c 18.08,-26.79 -10.81,-27.06 -15.6,-26.35 -4.27,-0.95 -39.831,-3.85 -22.44,25.25 z"
           style="fill:#000000;fill-opacity:0.41779001"
           id="path4028" />
      </g>
      <path
         d="m 319.78,162.83 c -1.74,-1.7 -4.32,-2.05 -5.91,-0.74 l -4.21,3.46 c -1.67,1.38 -1.62,4.04 0.11,5.97 l 1.56,1.73 -6.17,5.08 c -2.39,1.96 -2.64,5.41 -0.55,7.73 l 4.39,4.9 c 2.09,2.32 5.69,2.6 8.07,0.64 l 6.17,-5.08 1.15,1.28 c 1.74,1.93 4.45,2.35 6.13,0.97 l 4.2,-3.46 c 1.67,-1.38 1.64,-4.01 -0.09,-5.94 l -14.62,-16.28 c -0.08,-0.09 -0.15,-0.18 -0.23,-0.26 z"
         inkscape:connector-curvature="0"
         style="fill:#5e62c6;stroke:#221d1d;stroke-width:0.91592002;stroke-linecap:round;stroke-linejoin:round"
         id="rect5779" />
      <path
         d="m 223.05,93.392 c -3.85,5.313 -2.26,12.238 5.61,10.728 18.88,1.93 40.63,-0.32 54.32,-14.377 8.55,-8.578 9.53,-22.628 2.7,-32.594 C 273.04,37.846 249.49,28.211 227.13,24.917 206.13,22.27 182.34,24.682 166.1,39 c -10,8.484 -11.18,23.848 -4.07,34.553 10.69,16.697 30.98,24.549 49.99,27.857 10.08,-1.36 1.98,-12.134 -5.16,-10.532 -14.58,-3.804 -30.88,-12.156 -34.59,-27.725 -2.76,-11.098 6.27,-20.848 16.33,-24.364 21.28,-7.957 45.95,-4.751 66.16,5.103 10.77,5.604 22.64,14.91 22.24,27.965 -1.26,13.572 -15.74,20.458 -28.13,22.096 -8.54,1.271 -17.3,0.864 -25.82,-0.561 z"
         inkscape:connector-curvature="0"
         style="fill:#7974a8;stroke:#000000;stroke-width:1.27859998;stroke-linecap:round;stroke-linejoin:round"
         id="path3133" />
      <path
         d="m 230.69,83.608 c 30.11,-27.849 -14.45,-28.829 -8.84,-27.771 5.62,1.059 -42.44,-13.118 -20.7,22.839 12.96,3.293 16,3.954 30.09,5.025 39.11,18.649 -8.56,39.229 -8.41,53.199 78.21,15.52 143.84,101.2 128.45,192.54 C 335.9,420.78 247.4,482.12 153.75,466.34 60.091,450.57 -3.44,363.64 11.95,272.29 27.331,180.95 119.73,122.29 192.33,132.51 197.02,113.3 162.32,83.559 201.7,78.77"
         style="fill:#6b63c3;stroke:#000000;stroke-width:1.27859998;stroke-linecap:round;stroke-linejoin:round"
         sodipodi:nodetypes="csccccsscc"
         inkscape:connector-curvature="0"
         id="path2257" />
      <path
         sodipodi:cx="350.16321"
         sodipodi:cy="562.38336"
         transform="matrix(1.0254,0.17391,-0.16843,1.0071,-82.227,-326.09)"
         d="m 509.32831,562.38336 c 0,87.90446 -71.26064,159.1651 -159.1651,159.1651 -87.90446,0 -159.1651,-71.26064 -159.1651,-159.1651 0,-87.90446 71.26064,-159.1651 159.1651,-159.1651 87.90446,0 159.1651,71.26064 159.1651,159.1651 z"
         sodipodi:type="arc"
         style="fill:#e7e9e7;fill-opacity:0.35309999;stroke:#686871;stroke-width:1.301;stroke-linecap:round;stroke-linejoin:round"
         sodipodi:ry="159.1651"
         sodipodi:rx="159.1651"
         id="path7568" />
      <path
         d="M 331.14,354.1 C 302.28,434.34 212.08,475.44 129.81,445.84 47.538,416.24 4.2,327.1 33.063,246.86 c 28.867,-80.24 119.07,-121.33 201.34,-91.73 82.27,29.59 125.61,118.74 96.74,198.97 m -170.36,73.64 -4.38,24.29 M 52.753,276.5 28.015,272.03 m 309.46,55.84 -24.74,-4.47 m -181.19,-169.05 8.35,23.22 m 87.73,244.03 8.34,23.22 M 58.445,344.63 34.789,353.14 m 293.66,-104.81 -23.66,8.51 m -240.7,-58.4 18.839,15.94 m 200.72,170.61 18.84,15.94 m -203.9,-1.32 -16.234,19.2 m 198.97,-235.55 -16.23,19.19 m -59.86,-53.95 -4.38,24.28"
         inkscape:connector-curvature="0"
         style="opacity:0.97147001;fill:#e7e9e7;stroke:#686871;stroke-width:3.50099993;stroke-linecap:round;stroke-linejoin:round"
         id="path1382" />
      <path
         d="m 216.83,399.08 c -4.63,27.75 -30.91,46.52 -58.66,41.89 -27.76,-4.64 -46.52,-30.92 -41.89,-58.67 4.63,-27.76 30.92,-46.52 58.67,-41.89 27.75,4.63 46.52,30.92 41.88,58.67 z m -42.84,-58.83 -2.46,14.73 m 44.24,44.58 -14.73,-2.46 m -42.45,43.28 2.46,-14.73 m -44.13,-41.27 14.73,2.46 m 15.99,-43.48 5.96,13.69 m 59.24,14.25 -13.69,5.96 m -12.03,59.42 -5.96,-13.7 m -59.49,-10.57 13.7,-5.96 m -8.49,-45.47 12.46,8.24 m 57.54,-19.19 -8.23,12.46 m 16.5,59.36 -12.45,-8.24 m -55.97,17.56 8.23,-12.46"
         inkscape:connector-curvature="0"
         style="opacity:0.625;fill:#c3c0c0;fill-opacity:0.61589996;stroke:#4f4c4c;stroke-width:3.50099993;stroke-linecap:round;stroke-linejoin:round;stroke-opacity:0.61456;stroke-dashoffset:2.4507"
         id="path13754" />
      <path
         d="m 174.67,394.26 c 0,4.66 -3.78,8.44 -8.44,8.44 -4.66,0 -8.44,-3.78 -8.44,-8.44 0,-4.66 3.78,-8.44 8.44,-8.44 4.66,0 8.44,3.78 8.44,8.44 z m -9.09,-8.44 -1.3,-35.72"
         inkscape:connector-curvature="0"
         style="opacity:0.625;fill:#c3c0c0;fill-opacity:0.61589996;stroke:#241f1f;stroke-width:5.32200003;stroke-linecap:round;stroke-linejoin:round;stroke-opacity:0.98382999;stroke-dashoffset:2.4507"
         id="path17471" />
      <path
         d="m 195.58,292.15 c 5.65,7.86 3.87,18.82 -3.99,24.47 -7.85,5.66 -18.81,3.88 -24.47,-3.98 -5.65,-7.85 -3.87,-18.81 3.98,-24.47 7.86,-5.66 18.82,-3.87 24.48,3.98 z M 171.1,288.17 95.21,182.78"
         inkscape:connector-curvature="0"
         style="opacity:0.83832003;fill:none;stroke:#060505;stroke-width:7.32200003;stroke-linecap:round;stroke-linejoin:round;stroke-opacity:0.99730003;stroke-dashoffset:2.4507"
         id="path18352" />
    </g>
  </g>
  <g
     inkscape:groupmode="layer"
     id="layer2"
     inkscape:label="Icone"
     style="display:inline" />
  <g
     inkscape:groupmode="layer"
     id="layer5"
     inkscape:label="Calque"
     style="display:none">
    <rect
       style="fill:none;stroke:#000000;stroke-width:0.88307035;stroke-opacity:1"
       id="rect5368"
       width="142.4893"
       height="212.26587"
       x="-0.058465444"
       y="0.39102399" />
  </g>
</svg>
